<svg width="67" height="67" viewBox="0 0 67 67" fill="none" xmlns="http://www.w3.org/2000/svg">
<path d="M65.7972 10.4437L33.8401 0.120609C33.5705 -0.00683706 33.3008 -0.00683706 33.0311 0.120609L1.34378 10.5712C0.804422 10.8261 0.399902 11.3358 0.399902 11.9731L5.38897 51.2264C5.38897 51.6087 5.65865 51.9911 6.06317 52.246L32.7614 66.1376C32.8963 66.265 33.1659 66.265 33.4356 66.265C33.7053 66.265 33.8401 66.265 34.1098 66.1376L60.9429 52.1185C61.3474 51.8636 61.6171 51.6087 61.6171 51.099L66.6062 11.8456C66.741 11.2084 66.4714 10.5712 65.7972 10.4437ZM59.19 50.0794L33.5705 63.4612L7.95092 50.3343L3.23154 12.7378L33.4356 2.66953L63.9094 12.6103L59.19 50.0794Z" fill="url(#paint0_linear_503_12)"/>
<path d="M7.14212 14.0121C6.60276 14.267 6.19824 14.7768 6.19824 15.414L10.3783 48.0402C10.3783 48.4225 10.648 48.8049 11.0525 49.0598L32.7617 60.275C32.8965 60.4024 33.1662 60.4025 33.4359 60.4025C33.7055 60.4025 33.8404 60.4024 34.1101 60.275L55.9541 48.8049C56.3586 48.55 56.6283 48.2951 56.6283 47.7853L60.8083 15.2866C60.9432 14.6494 60.5386 14.1396 59.8644 13.8847L33.8404 5.47327C33.5707 5.34582 33.301 5.34582 32.8965 5.47327L7.14212 14.0121ZM33.4359 8.02219L57.9767 16.0513L54.0663 47.0206L33.4359 57.8535L13.0751 47.1481L9.16472 16.1787L33.4359 8.02219Z" fill="url(#paint1_linear_503_12)"/>
<path d="M33.4356 10.4437L17.3896 44.5992H23.3226L26.5587 36.9525H41.2563L44.7621 44.5992H50.6951L33.4356 10.4437ZM33.5704 20.8943L39.0988 31.8546H28.7162L33.5704 20.8943Z" fill="url(#paint2_linear_503_12)"/>
<defs>
<linearGradient id="paint0_linear_503_12" x1="33.5187" y1="-1.19952" x2="33.5187" y2="59.4544" gradientUnits="userSpaceOnUse">
<stop stop-color="#37926C"/>
<stop offset="0.0001" stop-color="#37926C"/>
<stop offset="1" stop-color="#91FFD2"/>
</linearGradient>
<linearGradient id="paint1_linear_503_12" x1="33.5166" y1="5.10899" x2="33.5166" y2="61.7184" gradientUnits="userSpaceOnUse">
<stop stop-color="#E0E0E0"/>
<stop offset="1" stop-color="#37745B"/>
</linearGradient>
<linearGradient id="paint2_linear_503_12" x1="34.0417" y1="9.81231" x2="34.0417" y2="41.0874" gradientUnits="userSpaceOnUse">
<stop stop-color="#37926C"/>
<stop offset="0.0001" stop-color="#37926C"/>
<stop offset="1" stop-color="#91FFD2"/>
</linearGradient>
</defs>
</svg>
