<svg width="46" height="46" viewBox="0 0 46 46" fill="none" xmlns="http://www.w3.org/2000/svg">
<path d="M8.27993 3.67999C5.74073 3.67999 3.67993 5.74079 3.67993 8.27999V37.72C3.67993 40.2592 5.74073 42.32 8.27993 42.32H37.7199C40.2591 42.32 42.3199 40.2592 42.3199 37.72V8.27999C42.3199 5.74079 40.2591 3.67999 37.7199 3.67999H8.27993ZM11.0399 16.56H17.232C17.9036 16.56 21.5373 16.5143 21.5373 19.8447C21.5373 21.6111 20.3317 22.2085 19.7889 22.4753C20.5985 22.7329 22.0799 23.4784 22.0799 25.76C22.0799 29.2836 18.0407 29.44 17.4979 29.44H11.0399V16.56ZM26.6799 16.56H33.1199V18.4H26.6799V16.56ZM13.7999 18.7953V21.8141H16.763C17.1678 21.8141 18.5095 21.5924 18.5095 20.24C18.5095 18.8876 16.762 18.7953 16.4952 18.7953H13.7999ZM30.112 19.32C33.7 19.32 34.6744 22.1166 34.8216 22.779C34.9596 23.4506 34.9599 24.0396 34.9599 24.84H27.6916C27.6916 25.6404 28.1157 27.4437 30.2593 27.4437C30.8297 27.4437 31.2518 27.3062 31.6842 27.0394C32.1074 26.7726 32.256 26.5137 32.394 26.2469H34.8126C34.3894 27.3049 33.8192 28.1068 32.9636 28.6404C32.108 29.174 31.1144 29.44 29.9736 29.44C29.256 29.44 28.5475 29.3025 27.8299 29.0357C27.2595 28.7689 26.6898 28.3729 26.2666 27.9773C25.8434 27.5725 25.5582 27.0387 25.273 26.3763C24.9878 25.8427 24.8399 25.0424 24.8399 24.38C24.8399 23.7176 25.1072 19.32 30.112 19.32ZM30.112 21.1869C28.0328 21.1869 27.6916 23.1838 27.6916 23.3126H32.2556C32.1084 22.6502 31.5104 21.1869 30.112 21.1869ZM13.7999 23.6541V27.2047H16.8834C17.1492 27.2047 19.0252 27.1225 19.0252 25.4941C19.0252 23.8749 17.5513 23.6541 16.8834 23.6541H13.7999Z" fill="#C9C9C9"/>
</svg>
