<svg width="69" height="69" viewBox="0 0 69 69" fill="none" xmlns="http://www.w3.org/2000/svg">
<path d="M67.24 31.981V36.259C64.1819 36.6868 61.7973 39.571 60.6712 44.0836C59.5451 48.6514 59.3906 54.2542 59.512 58.5874C59.6334 63.0862 56.8293 67.24 53.0315 67.24H15.2085C11.4107 67.24 8.60656 63.0862 8.728 58.5874C8.84944 54.2542 8.69488 48.6514 7.5688 44.0836C6.44272 39.571 4.05808 36.6868 1 36.259V31.981C4.05808 31.5532 6.44272 28.669 7.5688 24.1564C8.69488 19.5886 8.84944 13.9858 8.728 9.6526C8.60656 5.1538 11.4107 1 15.2085 1H53.0315C56.8293 1 59.6334 5.1538 59.512 9.6526C59.3906 13.9858 59.5451 19.5886 60.6712 24.1564C61.7973 28.669 64.1819 31.5532 67.24 31.981Z" stroke="url(#paint0_linear_503_5)" stroke-width="2" stroke-miterlimit="10"/>
<path d="M15.2089 63.1C14.1601 63.1 13.4436 62.4583 13.0274 61.9215C12.3661 61.0673 12.0062 59.9039 12.0383 58.7282C12.1597 54.4033 12.0327 48.1339 10.7344 42.8651C9.76843 38.9956 8.01197 35.972 5.75098 34.12C8.01197 32.2694 9.76843 29.25 10.7311 25.3901C12.0338 20.1061 12.1608 13.8368 12.0394 9.50633C12.0084 8.33609 12.3684 7.17275 13.0285 6.31853C13.4436 5.78171 14.1601 5.14001 15.2089 5.14001H53.032C54.0808 5.14001 54.7973 5.78171 55.2135 6.31853C55.8748 7.17275 56.2347 8.33609 56.2027 9.51185C56.0812 13.8368 56.2082 20.1061 57.5065 25.375C58.4725 29.2445 60.2301 32.2681 62.4911 34.12C60.2301 35.9706 58.4736 38.99 57.5109 42.8499C56.2082 48.1339 56.0812 54.4033 56.2027 58.7337C56.2336 59.9039 55.8737 61.0673 55.2135 61.9215C54.7973 62.4583 54.0808 63.1 53.032 63.1H15.2089ZM39.3236 32.9263C42.2569 32.3357 44.561 28.9367 44.561 25.1293C44.561 19.7059 41.1331 16.18 35.9178 16.18H24.1845V52.0462H35.9851C42.2338 52.0462 45.9984 48.225 45.9984 41.9032C45.9984 37.127 43.3124 33.6853 39.3225 33.1375L39.3236 32.9263ZM34.8171 20.7313C38.1214 20.7313 39.9982 22.5722 39.9982 25.9007C39.9982 29.4556 37.8178 31.4359 33.8621 31.4359H28.6005V20.7313H34.8171ZM28.6005 47.495V35.6932H34.7829C39.0984 35.6932 41.3351 37.6735 41.3351 41.5513C41.3351 45.4291 39.1547 47.4936 35.0412 47.4936L28.6005 47.495Z" fill="url(#paint1_linear_503_5)"/>
<defs>
<linearGradient id="paint0_linear_503_5" x1="34.1205" y1="0.676541" x2="34.1205" y2="68.8241" gradientUnits="userSpaceOnUse">
<stop stop-color="#E0E0E0"/>
<stop offset="1" stop-color="#37745B"/>
</linearGradient>
<linearGradient id="paint1_linear_503_5" x1="34.12" y1="4.06854" x2="34.12" y2="57.1407" gradientUnits="userSpaceOnUse">
<stop stop-color="#37926C"/>
<stop offset="0.0001" stop-color="#37926C"/>
<stop offset="1" stop-color="#91FFD2"/>
</linearGradient>
</defs>
</svg>
