<svg width="67" height="67" viewBox="0 0 67 67" fill="none" xmlns="http://www.w3.org/2000/svg">
<path d="M61.1629 5.03217L56.0993 56.347L33.612 61.8102L11.4078 56.2216L6.18701 5.03217H61.1629Z" fill="url(#paint0_linear_57_1784)"/>
<path d="M13.5669 12.93H53.275L49.7714 48.2692L33.5884 53.0007L17.5706 48.8601L16.5704 38.6585H24.0777L25.0794 43.9809L33.7551 46.0505L42.5975 43.6854L43.2642 34.5179L16.2371 34.6656L15.5687 27.4199H44.0993L44.5993 19.8788L14.4019 19.7311L13.5669 12.93Z" fill="#37745B"/>
<path d="M66.4418 0.746551C66.1886 0.498478 65.8285 0.356323 65.4543 0.356323H1.88134C1.50708 0.356323 1.16112 0.498478 0.906372 0.746551C0.651621 0.994624 0.519527 1.32632 0.55884 1.64547L6.39138 59.0158C6.44484 59.5133 6.83169 59.9147 7.36635 60.0568L33.2204 66.5625C33.3399 66.5862 33.461 66.5973 33.5947 66.5973C33.7016 66.5973 33.8211 66.5862 33.9422 66.5625L60.1297 60.199C60.6769 60.0694 61.0637 59.6555 61.1172 59.1705L66.7894 1.64547C66.8161 1.31377 66.695 0.994624 66.4418 0.746551ZM32.2596 63.8532L8.96877 57.9984L3.35009 2.72138H32.2596V11.7468H13.5606C13.1863 11.7468 12.8262 11.8889 12.573 12.137C12.3198 12.3851 12.1988 12.7042 12.2255 13.0359L12.9724 19.9792C13.0385 20.5938 13.6125 21.0551 14.3075 21.0551H32.2596V26.2367H15.1095C14.7353 26.2367 14.3751 26.3789 14.122 26.6269C13.8688 26.875 13.7477 27.1942 13.7744 27.5259L14.5355 34.6238C14.6016 35.2384 15.1756 35.6997 15.8706 35.6997H32.2596V44.3586L26.1472 42.774L25.5732 38.0773C25.5071 37.4739 24.9332 37.0251 24.2522 37.0251H16.2701C15.8958 37.0251 15.5357 37.1673 15.2825 37.4153C15.0293 37.6634 14.9082 37.9825 14.935 38.3142L16.0688 48.9605C16.1222 49.4455 16.5091 49.8594 17.0437 49.989L32.2596 53.8453V63.8532ZM34.9298 35.7011H41.9763L41.3363 42.6207L34.9298 44.2763V35.7011ZM33.7944 47.033L34.9282 46.7376L42.9639 44.668C43.4969 44.5258 43.8712 44.1119 43.9247 43.6269L44.7518 34.6127C44.7786 34.281 44.6449 33.9618 44.4043 33.7137C44.1511 33.4768 43.791 33.3347 43.4167 33.3347H34.9282H32.2596H17.0846L16.5767 28.6032H32.2596H34.9298H44.0725C44.766 28.6032 45.34 28.1293 45.4076 27.5147L46.1011 19.968C46.1278 19.6363 45.9941 19.3172 45.7535 19.0691C45.5004 18.8322 45.1402 18.69 44.766 18.69H34.9298H32.2596H15.5231L15.0293 14.1118H32.2596H34.9298H52.1349L48.5306 47.9431L34.9298 51.4565L33.7551 51.7645L32.2596 51.3854L18.6462 47.9431L17.7388 39.3901H23.0508L23.5981 43.8136C23.6515 44.2875 24.0258 44.6889 24.5463 44.8185L32.2612 46.8295L33.049 47.0302C33.288 47.0916 33.5538 47.0916 33.7944 47.033ZM34.9298 21.0565H43.3255L42.8443 26.2381H34.9298V21.0565ZM58.5272 58.1405L34.9298 63.8657V53.9289L50.1456 49.9904C50.6661 49.8608 51.053 49.4468 51.1064 48.9619L54.9371 13.0373C54.9639 12.7056 54.8444 12.3865 54.5896 12.1384C54.3364 11.8903 53.9763 11.7482 53.6021 11.7482H34.9298V2.72277H63.9997L58.5272 58.1405Z" fill="url(#paint1_linear_57_1784)"/>
<defs>
<linearGradient id="paint0_linear_57_1784" x1="33.6739" y1="3.98254" x2="33.6739" y2="55.9724" gradientUnits="userSpaceOnUse">
<stop stop-color="#37926C"/>
<stop offset="0.0001" stop-color="#37926C"/>
<stop offset="1" stop-color="#91FFD2"/>
</linearGradient>
<linearGradient id="paint1_linear_57_1784" x1="33.673" y1="0.0328593" x2="33.673" y2="68.1815" gradientUnits="userSpaceOnUse">
<stop stop-color="#E0E0E0"/>
<stop offset="1" stop-color="#37745B"/>
</linearGradient>
</defs>
</svg>
