<svg width="47" height="67" viewBox="0 0 47 67" fill="none" xmlns="http://www.w3.org/2000/svg">
<path d="M36.0497 23.7421C30.2808 23.7421 25.5876 28.4352 25.5876 34.2041C25.5876 39.973 30.2808 44.6662 36.0497 44.6662C41.8186 44.6662 46.5117 39.973 46.5117 34.2041C46.5117 28.4352 41.8186 23.7421 36.0497 23.7421ZM36.0497 42.2045C31.6384 42.2045 28.0493 38.6154 28.0493 34.2041C28.0493 29.7928 31.6384 26.2037 36.0497 26.2037C40.461 26.2037 44.0501 29.7928 44.0501 34.2041C44.0501 38.6154 40.461 42.2045 36.0497 42.2045Z" fill="url(#paint0_linear_57_1796)"/>
<path d="M34.8928 23.7421C41.3005 23.7421 46.5119 18.5123 46.5119 12.0849C46.5119 5.61689 41.2993 0.356323 34.8928 0.356323H25.4462H23.2677H12.5902C6.18252 0.356323 0.971191 5.58489 0.971191 12.0123C0.971191 16.6156 3.6187 20.5973 7.45151 22.5162C3.61624 24.4301 0.971191 28.3762 0.971191 32.9364C0.971191 37.5754 3.67532 41.583 7.57828 43.4846C3.63348 45.4798 0.971191 49.6264 0.971191 54.5424C0.971191 61.3131 6.48038 66.8223 13.2512 66.8223C20.0527 66.8211 25.5878 61.2861 25.5878 54.4833V44.6662V42.2045V34.2041V23.7421H34.8928ZM3.43285 12.0123C3.43285 6.94249 7.54136 2.81798 12.5902 2.81798H23.1261V21.2804H12.6579H12.5902C7.54136 21.2804 3.43285 17.1227 3.43285 12.0123ZM23.1261 54.4833C23.1261 59.9297 18.6964 64.3594 13.2512 64.3594C7.83799 64.3594 3.43285 59.9555 3.43285 54.5411C3.43285 49.0036 7.61152 44.6662 12.9459 44.6662H23.1261V54.4833ZM23.1261 42.2045H12.9459H12.6579C7.57213 42.2045 3.43285 38.0468 3.43285 32.9364C3.43285 27.8666 7.5709 23.7421 12.6579 23.7421H23.1261V42.2045ZM25.5878 21.2804V2.81798H34.8928C39.9429 2.81798 44.0502 6.97572 44.0502 12.0849C44.0502 17.1547 39.9417 21.2804 34.8928 21.2804H25.5878Z" fill="url(#paint1_linear_57_1796)"/>
<path d="M39.9663 30.2877L32.1333 38.1207C34.2959 40.2832 37.8037 40.2832 39.9663 38.1207C42.1289 35.9581 42.1289 32.4515 39.9663 30.2877Z" fill="url(#paint2_linear_57_1796)"/>
<path d="M5.89453 54.5891C5.89453 58.5942 9.19192 61.8412 13.2598 61.8412C17.3277 61.8412 20.6645 58.5561 20.6645 54.551L5.89453 54.5891Z" fill="url(#paint3_linear_57_1796)"/>
<path d="M12.6639 5.2796C9.13262 5.2796 6.23279 7.98373 5.92139 11.4337H20.7073V5.2796H12.6639Z" fill="url(#paint4_linear_57_1796)"/>
<defs>
<linearGradient id="paint0_linear_57_1796" x1="36.0498" y1="23.6399" x2="36.0498" y2="45.1666" gradientUnits="userSpaceOnUse">
<stop stop-color="#E0E0E0"/>
<stop offset="1" stop-color="#37745B"/>
</linearGradient>
<linearGradient id="paint1_linear_57_1796" x1="23.7419" y1="0.0317605" x2="23.7419" y2="68.4119" gradientUnits="userSpaceOnUse">
<stop stop-color="#E0E0E0"/>
<stop offset="1" stop-color="#37745B"/>
</linearGradient>
<linearGradient id="paint2_linear_57_1796" x1="36.8606" y1="30.1129" x2="36.8606" y2="38.7704" gradientUnits="userSpaceOnUse">
<stop stop-color="#37926C"/>
<stop offset="0.0001" stop-color="#37926C"/>
<stop offset="1" stop-color="#91FFD2"/>
</linearGradient>
<linearGradient id="paint3_linear_57_1796" x1="13.2792" y1="54.4162" x2="13.2792" y2="61.0916" gradientUnits="userSpaceOnUse">
<stop stop-color="#37926C"/>
<stop offset="0.0001" stop-color="#37926C"/>
<stop offset="1" stop-color="#91FFD2"/>
</linearGradient>
<linearGradient id="paint4_linear_57_1796" x1="13.3141" y1="5.16583" x2="13.3141" y2="10.801" gradientUnits="userSpaceOnUse">
<stop stop-color="#37926C"/>
<stop offset="0.0001" stop-color="#37926C"/>
<stop offset="1" stop-color="#91FFD2"/>
</linearGradient>
</defs>
</svg>
