<svg width="46" height="46" viewBox="0 0 46 46" fill="none" xmlns="http://www.w3.org/2000/svg">
<path d="M23.0001 4.60001C12.8387 4.60001 4.6001 12.8386 4.6001 23C4.6001 31.6219 10.5372 38.8363 18.5412 40.8327C18.4553 40.5843 18.4001 40.296 18.4001 39.9387V36.7939C17.6534 36.7939 16.4022 36.7939 16.0878 36.7939C14.829 36.7939 13.7096 36.2526 13.1668 35.2467C12.5642 34.1289 12.46 32.4193 10.9665 31.3735C10.5234 31.0255 10.8607 30.6283 11.3713 30.682C12.3143 30.9488 13.0963 31.5959 13.8323 32.5557C14.5652 33.5171 14.9102 33.7349 16.2795 33.7349C16.9434 33.7349 17.937 33.6965 18.8724 33.5493C19.3753 32.2721 20.2447 31.096 21.3073 30.5409C15.1801 29.9107 12.256 26.8625 12.256 22.724C12.256 20.9423 13.015 19.2188 14.3046 17.7667C13.8814 16.3254 13.3493 13.386 14.4671 12.2667C17.224 12.2667 18.8908 14.0545 19.291 14.5375C20.6648 14.0668 22.1736 13.8 23.7591 13.8C25.3476 13.8 26.8626 14.0668 28.2395 14.5406C28.6351 14.0607 30.3034 12.2667 33.0664 12.2667C34.1888 13.3875 33.6506 16.3392 33.2228 17.7775C34.5047 19.2265 35.2591 20.9453 35.2591 22.724C35.2591 26.8594 32.3396 29.9061 26.2216 30.5394C27.9052 31.418 29.1334 33.8867 29.1334 35.7466V39.9387C29.1334 40.0982 29.0982 40.2132 29.0798 40.3497C36.2496 37.8365 41.4001 31.0285 41.4001 23C41.4001 12.8386 33.1615 4.60001 23.0001 4.60001Z" fill="#C9C9C9"/>
</svg>
