<svg width="88" height="46" viewBox="0 0 88 46" fill="none" xmlns="http://www.w3.org/2000/svg">
<g filter="url(#filter0_d_57_1882)">
<path d="M22.95 31.5662C23.4298 32.0368 23.7588 32.6395 23.8954 33.2975C24.0319 33.9556 23.9698 34.6393 23.7169 35.262C23.4639 35.8847 23.0316 36.4181 22.4749 36.7945C21.9181 37.171 21.2621 37.3734 20.59 37.3762C19.6658 37.3726 18.7782 37.0147 18.11 36.3762L2.98 21.0662C2.90964 21.0403 2.84749 20.996 2.80001 20.938C2.75253 20.88 2.72146 20.8103 2.71001 20.7362C2.6562 20.6953 2.59936 20.6585 2.54 20.6262C2.46931 20.4899 2.41558 20.3455 2.38 20.1962C2.33759 20.1778 2.3006 20.1489 2.27258 20.1121C2.24457 20.0753 2.22646 20.032 2.22 19.9862C2.22 19.8762 2.22 19.7162 2.11 19.6562C2 19.5962 2 19.4462 2 19.3862V19.0162C2 18.9062 2 18.8562 2 18.6962C2 18.5362 2 18.4762 2 18.4262V18.0462C2 17.9362 2.11 17.8862 2.11 17.8262C2.11 17.7662 2.17 17.5662 2.22 17.3962C2.27 17.2262 2.22 17.3962 2.22 17.2962C2.30104 17.1281 2.39118 16.9645 2.49001 16.8062C2.49001 16.777 2.5016 16.7491 2.52222 16.7284C2.54285 16.7078 2.57083 16.6962 2.60001 16.6962C2.6745 16.5453 2.78855 16.4174 2.93 16.3262L18.06 0.976212C18.7102 0.350463 19.5776 0.000915527 20.48 0.000915527C21.3824 0.000915527 22.2498 0.350463 22.9 0.976212C23.2205 1.29249 23.475 1.66929 23.6487 2.08472C23.8223 2.50015 23.9118 2.94593 23.9118 3.39621C23.9118 3.84649 23.8223 4.29227 23.6487 4.7077C23.475 5.12313 23.2205 5.49993 22.9 5.81621L10.19 18.6962L22.95 31.5662Z" fill="#37745B"/>
<path d="M36.6599 33.2862L49.8599 1.88623C50.1763 1.16002 50.7671 0.588427 51.5033 0.296172C52.2396 0.00391673 53.0616 0.0147305 53.7899 0.326231C54.4957 0.633708 55.0509 1.20835 55.3339 1.92433C55.6169 2.64031 55.6047 3.43925 55.2999 4.14622L42.0999 35.6062C41.8619 36.1357 41.4754 36.5847 40.9873 36.8989C40.4992 37.2131 39.9304 37.3789 39.3499 37.3762C38.9822 37.3842 38.6172 37.3126 38.2799 37.1662C37.9142 37.0237 37.5809 36.809 37.3001 36.5348C37.0193 36.2606 36.7966 35.9327 36.6454 35.5705C36.4941 35.2083 36.4175 34.8194 36.42 34.4269C36.4225 34.0344 36.5041 33.6465 36.6599 33.2862Z" fill="#37745B"/>
<path d="M81.3599 20.6262V20.6862C81.2435 20.8227 81.1164 20.9498 80.9799 21.0662L65.8499 36.4162C65.1999 37.0516 64.3288 37.4101 63.4199 37.4162C62.5136 37.4117 61.645 37.0528 60.9999 36.4162C60.6791 36.0991 60.4244 35.7215 60.2506 35.3052C60.0768 34.8889 59.9873 34.4423 59.9873 33.9912C59.9873 33.5401 60.0768 33.0935 60.2506 32.6773C60.4244 32.261 60.6791 31.8834 60.9999 31.5662L73.7599 18.6962L60.9999 5.81624C60.6794 5.49996 60.425 5.12316 60.2513 4.70773C60.0776 4.2923 59.9881 3.84652 59.9881 3.39624C59.9881 2.94596 60.0776 2.50018 60.2513 2.08475C60.425 1.66932 60.6794 1.29252 60.9999 0.976242C61.6518 0.349844 62.5208 0 63.4249 0C64.329 0 65.198 0.349844 65.8499 0.976242L80.9799 16.3262C81.1209 16.434 81.2484 16.5582 81.3599 16.6962V16.8062C81.4606 16.9635 81.5508 17.1271 81.6299 17.2962C81.6299 17.3462 81.6899 17.3462 81.6899 17.3962C81.7238 17.5641 81.774 17.7282 81.8399 17.8862C81.8399 17.9362 81.8999 17.9362 81.8999 18.0462V18.4262C81.8999 18.4762 81.9599 18.6362 81.9599 18.6962C81.9599 18.7562 81.8999 18.9062 81.8999 18.9562V19.3862C81.8999 19.4462 81.8399 19.4462 81.8399 19.4962C81.7399 19.7162 81.7399 19.8762 81.6899 19.9862C81.6399 20.0962 81.6299 20.0362 81.6299 20.1462C81.6299 20.2562 81.4699 20.4162 81.3599 20.6262Z" fill="#37745B"/>
</g>
<defs>
<filter id="filter0_d_57_1882" x="0" y="0" width="87.96" height="45.4163" filterUnits="userSpaceOnUse" color-interpolation-filters="sRGB">
<feFlood flood-opacity="0" result="BackgroundImageFix"/>
<feColorMatrix in="SourceAlpha" type="matrix" values="0 0 0 0 0 0 0 0 0 0 0 0 0 0 0 0 0 0 127 0" result="hardAlpha"/>
<feOffset dx="2" dy="4"/>
<feGaussianBlur stdDeviation="2"/>
<feComposite in2="hardAlpha" operator="out"/>
<feColorMatrix type="matrix" values="0 0 0 0 0.564706 0 0 0 0 1 0 0 0 0 0.823529 0 0 0 1 0"/>
<feBlend mode="normal" in2="BackgroundImageFix" result="effect1_dropShadow_57_1882"/>
<feBlend mode="normal" in="SourceGraphic" in2="effect1_dropShadow_57_1882" result="shape"/>
</filter>
</defs>
</svg>
