<svg width="67" height="67" viewBox="0 0 67 67" fill="none" xmlns="http://www.w3.org/2000/svg">
<path d="M66.1302 0.804197C65.8389 0.519438 65.4257 0.356323 64.9941 0.356323H4.91761C3.62279 0.356323 2.38038 0.847049 1.50638 1.70409C0.632378 2.56113 0.196146 3.71261 0.311755 4.86823L5.42629 56.8616C5.59431 58.5605 6.93537 60.0147 8.76353 60.4833L32.0009 66.4383C32.4171 66.5434 32.8441 66.5973 33.2711 66.5973C33.6981 66.5973 34.1266 66.5434 34.5412 66.4383L57.7786 60.4833C59.6068 60.0147 60.9478 58.5591 61.1158 56.8602L66.5279 1.86029C66.568 1.47462 66.4231 1.09034 66.1302 0.804197ZM58.0468 56.6156C57.9898 57.192 57.5535 57.6661 56.9339 57.8237L33.6965 63.7788C33.419 63.852 33.1246 63.852 32.8472 63.7788L9.60979 57.8237C8.99167 57.6661 8.5539 57.192 8.49686 56.6169L3.38233 4.62494C3.34379 4.23374 3.48406 3.85913 3.78156 3.57023C4.07752 3.27994 4.47984 3.12097 4.91761 3.12097H63.3109L58.0468 56.6156Z" fill="url(#paint0_linear_57_1771)"/>
<path d="M12.4955 55.688L32.8504 60.9035C32.9891 60.9381 33.131 60.956 33.2728 60.956C33.4146 60.956 33.5579 60.9381 33.6951 60.9035L54.05 55.688C54.6635 55.5304 55.1074 55.0494 55.1629 54.4799L59.7965 7.38959C59.8335 7.00392 59.6902 6.61963 59.3973 6.33349C59.106 6.04873 58.6928 5.88562 58.2612 5.88562H8.28584C7.85423 5.88562 7.44113 6.04873 7.14979 6.33349C6.85846 6.61963 6.71356 7.00254 6.75055 7.38959L11.3826 54.4799C11.4381 55.0494 11.8805 55.5304 12.4955 55.688ZM56.578 8.65027L52.1848 53.291L33.2728 58.1375L14.3592 53.291L9.9691 8.65027H56.578Z" fill="url(#paint1_linear_57_1771)"/>
<path d="M48.1649 21.839L48.5425 17.692C48.5795 17.2884 48.225 16.9442 47.7749 16.9442H18.7571C18.3116 16.9442 17.9601 17.2814 17.9879 17.6795L19.0638 32.8851C19.0885 33.2487 19.426 33.532 19.833 33.532H39.7424C40.1878 33.532 40.5408 33.8707 40.5116 34.2688L40.0969 39.8824C40.0769 40.1603 39.8719 40.4008 39.5774 40.4907L33.4394 42.3706C33.2775 42.4204 33.1033 42.4204 32.9415 42.3706L26.7988 40.4893C26.5059 40.3994 26.3025 40.1631 26.2793 39.8866L26.0342 36.9367C26.005 36.5759 25.6689 36.2967 25.2651 36.2967H20.1027C19.6557 36.2967 19.3027 36.6367 19.3336 37.0362L19.9101 44.3888C19.9316 44.6694 20.1413 44.9086 20.4372 44.997L32.9461 48.6892C33.1033 48.7348 33.2714 48.7348 33.4286 48.6892L45.9344 44.9984C46.2334 44.91 46.4431 44.6667 46.4631 44.3847L47.5529 28.7368C47.5807 28.3387 47.2292 28.0027 46.7837 28.0027H26.1884C25.7876 28.0027 25.4531 27.7263 25.4207 27.3683L25.0431 23.2213C25.0076 22.8176 25.3606 22.4735 25.8123 22.4735H47.3972C47.798 22.4735 48.1325 22.197 48.1649 21.839Z" fill="url(#paint2_linear_57_1771)"/>
<defs>
<linearGradient id="paint0_linear_57_1771" x1="33.4144" y1="0.0328593" x2="33.4144" y2="68.1815" gradientUnits="userSpaceOnUse">
<stop stop-color="#E0E0E0"/>
<stop offset="1" stop-color="#37745B"/>
</linearGradient>
<linearGradient id="paint1_linear_57_1771" x1="33.2743" y1="0.0328586" x2="33.2743" y2="68.1815" gradientUnits="userSpaceOnUse">
<stop stop-color="#91FFD2"/>
<stop offset="1" stop-color="#37745B"/>
</linearGradient>
<linearGradient id="paint2_linear_57_1771" x1="33.2652" y1="16.3567" x2="33.2652" y2="45.456" gradientUnits="userSpaceOnUse">
<stop stop-color="#37926C"/>
<stop offset="0.0001" stop-color="#37926C"/>
<stop offset="1" stop-color="#91FFD2"/>
</linearGradient>
</defs>
</svg>
