<svg width="81" height="79" viewBox="0 0 81 79" fill="none" xmlns="http://www.w3.org/2000/svg">
<g filter="url(#filter0_d_57_1879)">
<path d="M46.3801 70.4433C43.8001 71.0233 41.8001 69.4433 41.8001 67.0233C41.7766 66.2813 41.9897 65.551 42.4086 64.938C42.8274 64.3251 43.4303 63.8611 44.1301 63.6133C52.2101 61.1133 53.3801 58.5333 53.3801 52.8733C53.3801 51.2033 53.2101 48.4633 53.2101 46.7133C53.2101 40.2133 56.2901 37.1333 61.8701 35.3033C56.3701 33.5533 53.2101 30.3833 53.2101 23.8933C53.2101 22.1433 53.3801 19.3933 53.3801 17.7333C53.3801 12.0733 52.2101 9.48334 44.1301 6.99334C43.4304 6.74236 42.828 6.27628 42.4095 5.6619C41.9909 5.04753 41.7776 4.31641 41.8001 3.57334C41.8001 1.16334 43.8001 -0.426659 46.3801 0.163341C59.2901 2.99334 62.7001 8.16334 62.7001 16.2333C62.7001 17.4833 62.5301 20.8133 62.5301 22.2333C62.5301 28.4033 64.7001 31.0633 70.3601 31.3133C73.0301 31.4833 74.6101 33.0633 74.6101 35.3133C74.6101 37.5633 73.0301 39.1433 70.3601 39.3133C64.7001 39.4833 62.5301 42.2333 62.5301 48.3133C62.5301 49.7233 62.7001 53.0533 62.7001 54.3133C62.7001 62.4433 59.2901 67.5733 46.3801 70.4433Z" fill="#37745B" fill-opacity="0.87"/>
<path d="M30.23 0.123363C32.81 -0.466637 34.8 1.12336 34.8 3.53336C34.8251 4.288 34.6033 5.03022 34.1684 5.64743C33.7335 6.26463 33.1091 6.72313 32.39 6.95336C24.39 9.44336 23.23 12.0334 23.23 17.6934C23.23 19.3534 23.4 22.1034 23.4 23.8534C23.4 30.3434 20.32 33.4334 14.74 35.2634C20.23 37.0134 23.4 40.1734 23.4 46.6734C23.4 48.4234 23.23 51.1634 23.23 52.8334C23.23 58.4934 24.4 61.0734 32.39 63.5734C33.1083 63.8017 33.7324 64.2583 34.1674 64.8738C34.6024 65.4893 34.8245 66.23 34.8 66.9834C34.8 69.4034 32.8 70.9834 30.23 70.4034C17.32 67.5734 13.9 62.4034 13.9 54.2434C13.9 52.9934 14.07 49.6634 14.07 48.2434C14.07 42.1634 11.82 39.4134 6.16003 39.2434C3.58003 39.0834 2 37.5034 2 35.2434C2 32.9834 3.58003 31.4134 6.16003 31.2434C11.82 30.9934 14.07 28.3334 14.07 22.1634C14.07 20.7534 13.9 17.4234 13.9 16.1634C13.9 8.11336 17.32 2.95336 30.23 0.123363Z" fill="#37745B" fill-opacity="0.87"/>
</g>
<defs>
<filter id="filter0_d_57_1879" x="0" y="0" width="80.6101" height="78.5635" filterUnits="userSpaceOnUse" color-interpolation-filters="sRGB">
<feFlood flood-opacity="0" result="BackgroundImageFix"/>
<feColorMatrix in="SourceAlpha" type="matrix" values="0 0 0 0 0 0 0 0 0 0 0 0 0 0 0 0 0 0 127 0" result="hardAlpha"/>
<feOffset dx="2" dy="4"/>
<feGaussianBlur stdDeviation="2"/>
<feComposite in2="hardAlpha" operator="out"/>
<feColorMatrix type="matrix" values="0 0 0 0 0.564706 0 0 0 0 1 0 0 0 0 0.823529 0 0 0 1 0"/>
<feBlend mode="normal" in2="BackgroundImageFix" result="effect1_dropShadow_57_1879"/>
<feBlend mode="normal" in="SourceGraphic" in2="effect1_dropShadow_57_1879" result="shape"/>
</filter>
</defs>
</svg>
