<svg width="68" height="67" viewBox="0 0 68 67" fill="none" xmlns="http://www.w3.org/2000/svg">
<path d="M60.1514 0.356323H7.71065C3.84659 0.356323 0.810547 3.39237 0.810547 7.25643V59.6972C0.810547 63.5613 3.84659 66.5973 7.71065 66.5973H60.1514C64.0155 66.5973 67.0515 63.5613 67.0515 59.6972V7.25643C67.0515 3.39237 64.0155 0.356323 60.1514 0.356323ZM64.2915 59.6972C64.2915 62.0432 62.4975 63.8373 60.1514 63.8373H7.71065C5.36461 63.8373 3.57059 62.0432 3.57059 59.6972V7.25643C3.57059 4.91039 5.36461 3.11636 7.71065 3.11636H60.1514C62.4975 3.11636 64.2915 4.91039 64.2915 7.25643V59.6972Z" fill="url(#paint0_linear_57_1778)"/>
<path d="M54.2173 46.587L53.1133 46.173C51.1813 45.345 50.3533 44.793 50.3533 43.413C50.3533 42.309 51.1813 41.4809 52.4233 41.4809C53.5273 41.4809 54.2173 41.8949 54.9073 42.861C55.0453 43.137 55.4593 43.275 55.8734 42.999L58.2194 41.4809C58.4954 41.3429 58.6334 40.7909 58.4954 40.5149C57.1154 38.4449 55.1833 37.6169 52.5613 37.6169C48.5592 37.6169 46.0752 40.1009 46.0752 43.413C46.0752 47.001 48.1452 48.795 51.4573 50.0371L52.5613 50.4511C54.6313 51.2791 55.5973 51.8311 55.5973 53.3491C55.5973 54.5911 54.6313 55.5571 52.8373 55.5571C50.9053 55.5571 49.9393 54.4531 48.9732 53.0731C48.6972 52.7971 48.2832 52.6591 48.0072 52.9351L45.6612 54.4531C45.3852 54.5911 45.2472 55.0051 45.3852 55.4192C46.7652 57.7652 48.9732 59.5592 52.8373 59.5592C57.1154 59.5592 60.1514 57.3512 60.1514 53.3491C60.1514 49.7611 58.0814 48.105 54.2173 46.587Z" fill="url(#paint1_linear_57_1778)"/>
<path d="M42.9013 37.6169H39.7272C39.3132 37.6169 39.0372 37.8929 39.0372 38.3069V52.2451C39.0372 54.4531 38.2092 55.0051 36.6912 55.0051C35.4492 55.0051 34.4831 54.3151 33.7931 53.3491C33.6551 53.0731 33.2411 52.9351 32.8271 53.2111L30.3431 54.7291C30.0671 54.8671 29.9291 55.4191 30.0671 55.6952C31.3091 57.7652 33.6551 59.6972 36.9672 59.6972C40.9692 59.6972 43.5913 57.6272 43.5913 52.9351V38.3069C43.5913 37.8929 43.3153 37.6169 42.9013 37.6169Z" fill="url(#paint2_linear_57_1778)"/>
<defs>
<linearGradient id="paint0_linear_57_1778" x1="33.931" y1="1.79568" x2="33.931" y2="65.2325" gradientUnits="userSpaceOnUse">
<stop stop-color="#E0E0E0"/>
<stop offset="0.0001" stop-color="#90FFD2"/>
<stop offset="1" stop-color="#37745B"/>
</linearGradient>
<linearGradient id="paint1_linear_57_1778" x1="52.6689" y1="38.5567" x2="52.6689" y2="58.5808" gradientUnits="userSpaceOnUse">
<stop stop-color="#37926C"/>
<stop offset="1" stop-color="#90FFD2"/>
</linearGradient>
<linearGradient id="paint2_linear_57_1778" x1="36.803" y1="38.5567" x2="36.803" y2="58.5808" gradientUnits="userSpaceOnUse">
<stop stop-color="#37926C"/>
<stop offset="1" stop-color="#90FFD2"/>
</linearGradient>
</defs>
</svg>
