<svg width="46" height="46" viewBox="0 0 46 46" fill="none" xmlns="http://www.w3.org/2000/svg">
<path d="M37.7199 3.67999H8.27993C5.74073 3.67999 3.67993 5.74079 3.67993 8.27999V37.72C3.67993 40.2592 5.74073 42.32 8.27993 42.32H37.7199C40.2591 42.32 42.3199 40.2592 42.3199 37.72V8.27999C42.3199 5.74079 40.2591 3.67999 37.7199 3.67999ZM15.6399 18.4V35.88H10.1199V18.4H15.6399ZM10.1199 13.3124C10.1199 12.0244 11.2239 11.04 12.8799 11.04C14.5359 11.04 15.5755 12.0244 15.6399 13.3124C15.6399 14.6004 14.6095 15.64 12.8799 15.64C11.2239 15.64 10.1199 14.6004 10.1199 13.3124ZM35.8799 35.88H30.3599C30.3599 35.88 30.3599 27.3608 30.3599 26.68C30.3599 24.84 29.4399 23 27.1399 22.9632H27.0663C24.8399 22.9632 23.9199 24.8584 23.9199 26.68C23.9199 27.5172 23.9199 35.88 23.9199 35.88H18.3999V18.4H23.9199V20.7552C23.9199 20.7552 25.6955 18.4 29.2651 18.4C32.9175 18.4 35.8799 20.9116 35.8799 25.9992V35.88Z" fill="#C9C9C9"/>
</svg>
