<svg width="321" height="187" viewBox="0 0 321 187" fill="none" xmlns="http://www.w3.org/2000/svg">
<path d="M313.993 184.121C311.163 185.211 229.103 186.701 225.893 184.871C225.543 184.661 225.633 181.041 224.433 171.671C224.373 171.221 222.493 169.481 219.573 167.031C208.573 157.831 182.813 138.441 182.813 138.441L223.813 102.861L263.503 141.861L273.823 152.001C273.823 152.001 307.353 170.111 310.673 172.501C313.993 174.891 316.823 183.041 313.993 184.121Z" fill="#EB9481"/>
<path d="M313.993 184.121C311.163 185.211 229.103 186.701 225.893 184.871C225.543 184.661 225.643 181.041 224.423 171.671C224.373 171.221 222.503 169.491 219.573 167.031C215.753 163.831 213.943 162.371 208.263 157.951L260.333 138.821L263.453 141.881L273.773 152.031C273.773 152.031 307.303 170.131 310.623 172.521C313.943 174.911 316.823 183.041 313.993 184.121Z" fill="#EBEBEB"/>
<path d="M319.643 185.251C316.793 186.251 229.363 187.201 226.213 185.251C225.473 184.791 224.793 179.711 224.213 172.751C224.143 171.881 215.283 164.801 214.073 163.491L267.653 145.491L274.423 151.851C274.423 151.851 313.853 170.201 317.073 172.701C320.293 175.201 322.533 184.261 319.643 185.251Z" fill="#1FAF95"/>
<path d="M318.433 181.991C304.693 181.811 243.763 182.401 230.173 183.271C230.063 183.271 230.063 183.351 230.173 183.351C243.783 183.831 304.713 182.791 318.433 182.221C318.723 182.201 318.723 182.001 318.433 181.991Z" fill="#263238"/>
<path d="M278.833 152.411C273.413 151.471 266.833 152.411 262.733 156.271C262.573 156.421 262.793 156.641 262.963 156.591C268.106 154.862 273.42 153.688 278.813 153.091C278.903 153.093 278.991 153.06 279.056 152.998C279.122 152.936 279.16 152.851 279.163 152.761C279.166 152.671 279.132 152.583 279.07 152.517C279.009 152.452 278.923 152.413 278.833 152.411Z" fill="#263238"/>
<path d="M282.763 154.721C277.343 153.771 270.763 154.721 266.663 158.581C266.503 158.731 266.713 158.951 266.893 158.891C272.036 157.165 277.35 155.994 282.743 155.401C282.833 155.403 282.921 155.37 282.986 155.308C283.052 155.246 283.09 155.161 283.093 155.071C283.095 154.981 283.062 154.893 283 154.827C282.938 154.762 282.853 154.723 282.763 154.721Z" fill="#263238"/>
<path d="M286.683 157.021C281.273 156.081 274.683 157.021 270.583 160.881C270.433 161.031 270.643 161.251 270.823 161.201C275.966 159.472 281.28 158.298 286.673 157.701C286.763 157.702 286.85 157.667 286.915 157.605C286.979 157.542 287.017 157.456 287.018 157.366C287.019 157.276 286.985 157.189 286.922 157.124C286.859 157.059 286.773 157.022 286.683 157.021Z" fill="#263238"/>
<path d="M290.613 159.331C285.203 158.381 278.613 159.331 274.513 163.191C274.353 163.341 274.573 163.561 274.753 163.501C279.896 161.773 285.21 160.603 290.603 160.011C290.693 160.012 290.78 159.977 290.845 159.915C290.909 159.852 290.947 159.766 290.948 159.676C290.949 159.586 290.915 159.499 290.852 159.434C290.789 159.369 290.703 159.332 290.613 159.331Z" fill="#263238"/>
<path d="M288.663 139.821C286.513 136.921 282.573 138.281 280.333 140.201C276.558 143.571 273.737 147.875 272.153 152.681C272.145 152.702 272.142 152.725 272.145 152.747C272.147 152.77 272.155 152.791 272.168 152.81C272.181 152.828 272.198 152.844 272.218 152.854C272.238 152.865 272.26 152.871 272.283 152.871C272.281 152.977 272.303 153.081 272.349 153.177C272.394 153.273 272.461 153.356 272.545 153.421C272.628 153.486 272.726 153.531 272.83 153.552C272.933 153.573 273.041 153.569 273.143 153.541C277.583 151.831 282.543 150.541 286.333 147.541C288.533 145.761 290.703 142.541 288.663 139.821ZM279.353 149.571C277.183 150.461 274.993 151.241 272.853 152.221C274.463 149.791 275.953 147.301 277.793 145.031C278.664 143.928 279.61 142.885 280.623 141.911C282.213 140.421 288.543 137.241 287.623 143.181C287.173 146.431 281.933 148.491 279.353 149.551V149.571Z" fill="#263238"/>
<path d="M258.403 151.411C262.883 153.251 268.003 153.101 272.743 153.501C272.848 153.499 272.952 153.473 273.046 153.424C273.14 153.376 273.221 153.306 273.283 153.221C273.345 153.135 273.386 153.037 273.404 152.933C273.421 152.828 273.414 152.722 273.383 152.621C273.403 152.612 273.422 152.6 273.437 152.584C273.452 152.567 273.463 152.548 273.47 152.527C273.476 152.506 273.478 152.484 273.475 152.462C273.472 152.44 273.465 152.419 273.453 152.401C270.599 148.225 266.694 144.876 262.133 142.691C259.453 141.461 255.283 141.251 254.023 144.631C252.823 147.821 255.793 150.331 258.403 151.411ZM255.923 147.581C253.423 142.121 260.383 143.421 262.323 144.411C263.57 145.066 264.77 145.808 265.913 146.631C268.251 148.357 270.5 150.199 272.653 152.151C270.333 151.811 268.003 151.671 265.653 151.421C262.903 151.111 257.293 150.591 255.923 147.581Z" fill="#263238"/>
<path d="M264.013 139.691L213.393 165.931C213.393 165.931 160.653 118.191 155.823 117.831C150.993 117.471 80.0429 165.621 44.3229 165.821C7.32288 165.981 5.45288 127.221 5.45288 127.221L59.4529 114.821C98.3529 95.6507 138.873 61.2207 165.383 64.4307C194.133 67.8707 264.013 139.691 264.013 139.691Z" fill="#455A64"/>
<path d="M251.653 133.011C243.103 137.241 245.503 135.911 237.003 140.231C232.843 142.341 211.913 152.901 208.353 155.511C208.283 155.571 208.353 155.711 208.443 155.681C212.623 154.281 233.323 143.271 237.443 141.081C245.863 136.611 243.443 137.811 251.773 133.251C251.789 133.243 251.803 133.232 251.814 133.219C251.826 133.205 251.835 133.19 251.84 133.173C251.846 133.156 251.848 133.139 251.847 133.121C251.846 133.104 251.841 133.086 251.833 133.071C251.825 133.055 251.814 133.041 251.801 133.029C251.788 133.018 251.772 133.009 251.755 133.003C251.739 132.998 251.721 132.996 251.703 132.997C251.686 132.998 251.669 133.003 251.653 133.011Z" fill="#263238"/>
<path d="M204.433 153.821C194.533 145.101 162.103 116.691 160.793 115.631C159.772 114.655 158.637 113.806 157.413 113.101C156.908 112.903 156.365 112.823 155.824 112.867C155.284 112.91 154.76 113.075 154.293 113.351C152.793 114.051 151.293 114.821 149.833 115.541L141.063 119.821C129.723 125.351 118.443 131.031 107.013 136.391C96.0129 141.531 88.1729 146.391 76.6929 150.391C65.2994 154.406 53.5142 157.208 41.5329 158.751C40.0529 158.931 38.5729 159.091 37.0929 159.231C37.0752 159.237 37.0599 159.248 37.0491 159.264C37.0383 159.279 37.0325 159.297 37.0325 159.316C37.0325 159.334 37.0383 159.353 37.0491 159.368C37.0599 159.383 37.0752 159.395 37.0929 159.401C48.8691 158.698 60.512 156.531 71.7529 152.951C83.1229 149.461 90.8329 144.951 101.643 139.951C112.833 134.801 123.863 129.291 134.893 123.801C140.723 120.911 146.533 117.981 152.373 115.121C153.703 114.481 155.583 113.071 157.103 113.761C157.734 114.118 158.318 114.551 158.843 115.051L160.843 116.671C163.343 118.751 203.093 152.991 204.393 153.971C204.393 154.051 204.533 153.921 204.433 153.821Z" fill="#263238"/>
<path d="M5.35288 127.171C5.35288 127.171 -0.64712 162.171 16.8029 175.921C34.2529 189.671 162.533 188.011 181.963 181.721C201.393 175.431 202.033 144.041 180.763 136.771C160.533 129.821 74.5329 126.491 72.3529 125.641C71.8229 125.431 79.9929 120.531 79.9529 120.231L60.3729 114.231L5.35288 127.171Z" fill="#455A64"/>
<path d="M31.9128 126.281C31.9128 126.131 31.6628 126.181 31.6628 126.281C31.6752 130.342 30.2593 134.278 27.6628 137.401C24.6628 140.841 20.2928 142.771 16.3128 144.781C15.9328 144.971 16.2228 145.571 16.6128 145.451C19.0492 144.711 21.3967 143.705 23.6128 142.451C25.6576 141.36 27.4578 139.863 28.9028 138.051C30.1922 136.404 31.1256 134.508 31.6437 132.482C32.1619 130.456 32.2535 128.344 31.9128 126.281Z" fill="#263238"/>
<path d="M70.9529 121.951C70.0629 120.811 69.0929 119.731 68.1629 118.631C65.9729 116.021 63.7729 113.401 61.4729 110.891C61.2629 110.651 60.8329 110.991 61.0329 111.251C62.5829 113.251 64.2129 115.251 65.8229 117.201L68.3129 120.201C69.186 121.122 69.9664 122.127 70.6429 123.201C71.2429 124.321 70.4529 125.281 69.2829 125.401C68.2591 125.437 67.2605 125.079 66.4929 124.401C64.7556 122.862 63.1654 121.165 61.7429 119.331C60.8229 118.331 59.8929 117.251 58.9629 116.231C58.0329 115.211 56.9029 114.101 55.9029 113.011C55.8429 112.941 55.7229 113.011 55.7729 113.121C56.6429 114.311 57.4429 115.551 58.3129 116.751C59.1829 117.951 60.0729 119.121 60.9629 120.291C61.8529 121.461 62.6929 122.481 63.6029 123.551C64.3571 124.487 65.2589 125.294 66.2729 125.941C67.9329 126.941 70.8229 127.131 71.7129 124.941C71.8688 124.42 71.8805 123.867 71.7467 123.341C71.6128 122.814 71.3385 122.334 70.9529 121.951Z" fill="#263238"/>
<path d="M179.303 181.821C172.613 181.941 165.913 182.331 159.213 182.471C152.513 182.611 145.923 182.651 139.283 182.591C125.95 182.471 112.616 181.954 99.2829 181.041C85.8229 180.111 71.2829 178.771 57.9529 176.911C51.5529 176.031 45.0729 175.291 38.7529 173.911C33.0679 172.829 27.8111 170.143 23.6029 166.171C14.9429 157.781 11.6029 145.431 10.2029 133.641C10.0129 132.061 9.86293 130.471 9.73293 128.881C9.73293 128.781 9.56293 128.781 9.57293 128.881C10.3529 140.971 12.2329 153.581 19.8429 163.301C23.0515 167.545 27.3262 170.864 32.2329 172.921C38.2329 175.321 44.8629 175.921 51.2329 176.741C64.6529 178.561 79.2329 179.971 92.7129 181.011C106.193 182.051 119.913 182.721 133.533 182.921C147.153 183.121 160.793 182.921 174.393 182.261C176.053 182.181 177.713 182.081 179.393 181.941C179.402 181.927 179.406 181.911 179.406 181.895C179.405 181.878 179.399 181.862 179.39 181.849C179.38 181.836 179.366 181.827 179.351 181.821C179.335 181.816 179.319 181.816 179.303 181.821Z" fill="#263238"/>
<path d="M137.073 130.391C132.863 129.771 128.653 129.171 124.413 128.721C120.173 128.271 115.843 127.891 111.553 127.531C103.073 126.811 94.5528 126.171 86.0628 125.771C81.2328 125.541 76.4028 125.521 71.5728 125.581C71.4128 125.581 71.4228 125.801 71.5728 125.821C80.0728 126.591 88.5728 127.121 97.1028 127.691C105.633 128.261 114.103 129.001 122.573 129.811C127.383 130.271 132.193 130.621 137.003 131.011C137.085 131.02 137.168 130.996 137.232 130.945C137.297 130.893 137.339 130.818 137.348 130.736C137.357 130.653 137.333 130.571 137.282 130.506C137.23 130.442 137.155 130.4 137.073 130.391Z" fill="#263238"/>
<path d="M80.9528 119.821C77.5586 121.283 74.2937 123.03 71.1928 125.041C68.0473 126.932 65.0398 129.044 62.1928 131.361C62.1128 131.431 62.1928 131.531 62.2928 131.491C65.6028 129.961 68.7928 128.041 71.9428 126.211C75.1403 124.414 78.229 122.431 81.1928 120.271C81.3628 120.101 81.2328 119.691 80.9528 119.821Z" fill="#263238"/>
<path d="M64.8829 84.8207L56.5329 83.4607C54.9484 78.3182 55.0043 72.81 56.6929 67.7007C57.0629 66.5307 52.9529 72.9007 52.2929 82.7807C43.4729 81.3707 31.4829 79.4507 21.0329 77.6707C21.5829 73.5607 21.9029 69.7307 21.9029 69.7307C21.0821 72.3434 20.0278 74.8769 18.7529 77.3007L14.5829 76.5807C16.0529 70.3107 17.0129 59.1007 17.0129 59.1007C15.1414 64.9987 12.3138 70.5493 8.64292 75.5307C2.02292 74.3307 -2.35709 73.4307 -1.97709 73.1607C10.1529 63.5307 4.02292 55.5607 8.75292 45.9707C14.4129 34.4807 25.2129 34.4807 26.5829 25.3207C27.7129 17.8707 29.2729 4.26069 39.1629 3.12069C42.1512 1.11059 45.6655 0.0253366 49.2668 0.000438234C52.8682 -0.0244601 56.3971 1.0121 59.4129 2.98069C73.1529 11.3707 63.0929 33.1307 63.2429 37.9807C63.4529 44.8807 66.1829 47.8007 67.1429 55.8007C68.1029 63.8007 63.7129 68.3507 62.3529 73.4707C60.9929 78.5907 66.5329 85.0807 64.8829 84.8207Z" fill="#263238"/>
<path d="M-1.97705 71.4707C-0.236596 69.7252 1.24812 67.7422 2.43295 65.5807C3.61295 63.4607 3.71295 61.0907 3.69296 58.5807C3.60714 56.0635 3.65053 53.5435 3.82295 51.0307C4.02984 48.4163 4.75744 45.8697 5.96295 43.5407C7.225 41.2234 9.00443 39.2284 11.1629 37.7107C13.2468 36.2691 15.4479 35.0046 17.743 33.9307C19.9557 32.9014 22.0262 31.5906 23.903 30.0307C25.73 28.3763 27.0686 26.2527 27.7729 23.8907C27.4136 26.4412 26.2831 28.8209 24.533 30.7107C22.7438 32.5255 20.6906 34.0595 18.443 35.2607C16.2961 36.438 14.2284 37.7541 12.253 39.2007C10.367 40.6203 8.81131 42.4319 7.69296 44.5107C6.6151 46.6249 5.93706 48.9201 5.69296 51.2807C5.39295 53.6807 5.39295 56.1407 5.26295 58.6607C5.20723 59.9439 5.05345 61.2209 4.80295 62.4807C4.51099 63.7652 3.99293 64.9876 3.27295 66.0907C1.85279 68.1787 0.0755804 69.9999 -1.97705 71.4707Z" fill="#263238"/>
<path d="M66.213 13.0207C66.7146 16.0637 66.8423 19.1567 66.593 22.2307C66.413 25.3007 66.083 28.3607 65.723 31.4007L65.223 35.9407C65.0392 37.4032 64.999 38.8803 65.103 40.3507C65.4667 43.2862 66.3577 46.1319 67.733 48.7507C68.3916 50.179 68.9562 51.6488 69.423 53.1507C69.8689 54.6929 70.1472 56.2788 70.253 57.8807C70.2988 59.4637 70.2286 61.0479 70.043 62.6207C69.8631 64.2035 69.4904 65.7584 68.933 67.2507C68.373 68.7507 67.673 70.1307 67.043 71.4907C66.4117 72.8472 65.9094 74.2601 65.543 75.7107C65.2247 77.1733 65.2611 78.6908 65.649 80.1365C66.037 81.5821 66.7653 82.914 67.773 84.0207C66.5854 82.9772 65.675 81.6554 65.1236 80.1738C64.5721 78.6921 64.3967 77.0968 64.613 75.5307C64.8683 73.9818 65.2839 72.4637 65.853 71.0007C66.393 69.5307 67.033 68.1607 67.463 66.7507C68.2949 63.9134 68.6032 60.9484 68.373 58.0007C68.2449 56.5467 67.9702 55.1094 67.553 53.7107C67.0995 52.2924 66.5516 50.9059 65.913 49.5607C65.2517 48.1467 64.6675 46.6979 64.163 45.2207C63.6547 43.6891 63.3389 42.1003 63.223 40.4907C63.1575 38.9027 63.2445 37.3121 63.483 35.7407C63.683 34.2107 63.933 32.6907 64.183 31.1807C64.673 28.1807 65.183 25.1807 65.613 22.1307C66.1275 19.1229 66.3285 16.0699 66.213 13.0207Z" fill="#263238"/>
<path d="M42.0029 59.6407C46.9329 73.0507 69.2529 108.011 79.5929 113.141C87.2429 116.921 110.083 121.561 113.023 120.831C117.263 119.831 126.753 90.9907 122.873 90.7107C104.213 89.3607 92.3329 86.9407 87.9329 85.2007C84.2229 83.7307 68.7629 69.4507 48.7029 52.0107C41.7129 45.9407 39.0429 51.6207 42.0029 59.6407Z" fill="#EB9481"/>
<path d="M53.4629 88.9407L66.2729 64.5307C66.2729 64.5307 55.9029 55.3407 49.4429 51.0607C40.8929 45.4107 36.7829 47.2607 40.1129 59.3807C42.3329 67.4807 53.4629 88.9407 53.4629 88.9407Z" fill="#1FAF95"/>
<path d="M54.5329 54.7607H54.4229C53.9984 54.7606 53.5867 54.6144 53.2572 54.3468C52.9276 54.0791 52.7001 53.7062 52.6129 53.2907C53.2329 53.8207 53.8729 54.2507 54.5329 54.7607ZM54.4229 83.4007C53.9323 83.4007 53.4617 83.5956 53.1148 83.9426C52.7678 84.2895 52.5729 84.7601 52.5729 85.2507C52.5729 85.7414 52.7678 86.2119 53.1148 86.5589C53.4617 86.9058 53.9323 87.1007 54.4229 87.1007L55.9329 84.2107C55.7649 83.962 55.5385 83.7581 55.2736 83.6169C55.0086 83.4757 54.7131 83.4015 54.4129 83.4007H54.4229ZM44.1829 67.4007C43.8501 67.3978 43.5235 67.4917 43.2429 67.6707C43.7229 68.7607 44.2429 69.8807 44.7329 71.0107C45.1103 70.8965 45.4407 70.6635 45.6749 70.3464C45.9092 70.0293 46.0347 69.645 46.0329 69.2507C46.0356 69.0052 45.9894 68.7617 45.8969 68.5343C45.8045 68.3068 45.6678 68.1001 45.4947 67.9261C45.3216 67.752 45.1155 67.6141 44.8886 67.5205C44.6617 67.4269 44.4184 67.3794 44.1729 67.3807L44.1829 67.4007ZM64.6629 67.4007C64.42 67.4007 64.1794 67.4486 63.955 67.5415C63.7305 67.6345 63.5266 67.7708 63.3548 67.9426C63.183 68.1144 63.0467 68.3183 62.9537 68.5428C62.8608 68.7672 62.8129 69.0078 62.8129 69.2507C62.8126 69.6652 62.9537 70.0673 63.2129 70.3907L64.7829 67.3907L64.6629 67.4007Z" fill="white"/>
<path d="M52.4529 85.2507C54.0729 81.5707 55.7329 77.9207 57.5729 74.3407C58.4795 72.554 59.4195 70.7807 60.3929 69.0207C61.3929 67.2607 62.5129 65.6007 63.4529 63.8307C63.5029 63.7407 63.6529 63.8307 63.5929 63.9207C62.5929 65.6307 61.7629 67.5107 60.8229 69.2707C59.8829 71.0307 58.9529 72.8307 58.0329 74.6107C56.1929 78.1707 54.3529 81.7407 52.5929 85.3407C52.5329 85.4407 52.4029 85.3507 52.4529 85.2507Z" fill="#263238"/>
<path opacity="0.1" d="M64.2629 68.3707L53.4629 88.9507C53.4629 88.9507 42.3429 67.4807 40.1029 59.3807C39.1029 55.6307 38.7629 52.8707 39.1029 51.0007L64.2629 68.3707Z" fill="black"/>
<path d="M113.023 120.821C117.062 123.033 121.241 124.981 125.533 126.651C128.963 127.821 138.923 130.921 140.583 127.271C141.723 124.781 136.083 122.271 132.123 120.401C130.043 119.401 127.533 117.081 128.223 115.741C129.423 113.411 134.783 116.061 138.273 118.311C145.033 122.671 153.953 130.371 158.363 127.041C160.023 125.781 158.273 123.271 155.663 120.761C159.953 123.761 164.563 126.231 166.473 124.911C167.563 124.151 167.663 123.051 167.133 121.771C167.68 122.054 168.298 122.169 168.91 122.101C169.523 122.034 170.101 121.786 170.573 121.391C172.083 119.961 171.483 117.701 170.013 115.391C170.284 115.374 170.548 115.294 170.782 115.157C171.017 115.02 171.216 114.829 171.363 114.601C174.623 110.101 160.003 96.0707 154.793 94.6007C139.463 90.2007 122.903 90.7807 122.903 90.7807C116.533 95.3007 113.013 120.821 113.023 120.821Z" fill="#EB9481"/>
<path d="M136.533 107.441C140.207 108.153 143.678 109.673 146.693 111.891C150.193 114.551 152.913 118.071 156.123 121.041C156.213 121.121 156.123 121.251 155.993 121.171C154.493 119.641 152.823 118.261 151.253 116.801C149.683 115.341 148.253 113.881 146.613 112.561C143.678 110.128 140.227 108.398 136.523 107.501C136.523 107.501 136.443 107.431 136.533 107.441Z" fill="#263238"/>
<path d="M139.683 100.991C143.785 102.156 147.756 103.741 151.533 105.721C155.533 108.021 158.653 111.601 161.683 115.061C163.503 117.141 165.283 119.251 167.013 121.411C167.083 121.501 166.953 121.631 166.883 121.541C163.803 117.967 160.623 114.494 157.343 111.121C154.317 107.966 150.698 105.441 146.693 103.691C144.403 102.691 142.043 101.881 139.693 101.061C139.613 101.051 139.633 100.981 139.683 100.991Z" fill="#263238"/>
<path d="M144.303 95.4407C148.223 96.4407 151.643 97.2907 155.043 99.5807C159.553 102.581 163.813 107.581 165.313 109.291C166.963 111.221 168.543 113.211 170.103 115.221C170.163 115.301 170.023 115.411 169.953 115.331C166.385 110.918 162.537 106.74 158.433 102.821C156.505 100.926 154.295 99.3409 151.883 98.1207C149.435 97.0213 146.895 96.1379 144.293 95.4807C144.293 95.4807 144.283 95.4407 144.303 95.4407Z" fill="#263238"/>
<path d="M0.603027 134.711C2.97303 135.481 70.603 115.911 70.603 115.911L62.603 92.4407C62.603 92.4407 66.603 84.8907 64.713 77.6307C62.273 67.9307 44.313 51.9807 42.903 51.0407C37.243 47.2907 31.903 47.3507 27.233 49.8407C7.68303 60.2307 0.603027 134.711 0.603027 134.711Z" fill="#1FAF95"/>
<path d="M35.7829 52.9207C35.7829 53.2866 35.6744 53.6443 35.4711 53.9485C35.2679 54.2527 34.9789 54.4898 34.6409 54.6299C34.3028 54.7699 33.9309 54.8065 33.572 54.7351C33.2131 54.6638 32.8835 54.4875 32.6248 54.2288C32.366 53.9701 32.1898 53.6405 32.1185 53.2816C32.0471 52.9227 32.0837 52.5508 32.2237 52.2127C32.3638 51.8747 32.6009 51.5857 32.9051 51.3824C33.2093 51.1792 33.567 51.0707 33.9329 51.0707C34.4236 51.0707 34.8941 51.2656 35.2411 51.6125C35.588 51.9595 35.7829 52.43 35.7829 52.9207ZM13.4529 83.4007C13.087 83.4007 12.7293 83.5092 12.4251 83.7125C12.1209 83.9157 11.8838 84.2047 11.7437 84.5427C11.6037 84.8808 11.5671 85.2527 11.6385 85.6116C11.7098 85.9705 11.886 86.3001 12.1448 86.5588C12.4035 86.8176 12.7331 86.9937 13.092 87.0651C13.4509 87.1365 13.8228 87.0999 14.1609 86.9599C14.4989 86.8198 14.7879 86.5827 14.9911 86.2785C15.1944 85.9742 15.3029 85.6166 15.3029 85.2507C15.3029 85.0077 15.2551 84.7672 15.1621 84.5427C15.0691 84.3183 14.9329 84.1143 14.7611 83.9425C14.5893 83.7707 14.3853 83.6345 14.1609 83.5415C13.9364 83.4485 13.6959 83.4007 13.4529 83.4007ZM33.9329 83.4007C33.567 83.4007 33.2093 83.5092 32.9051 83.7125C32.6009 83.9157 32.3638 84.2047 32.2237 84.5427C32.0837 84.8808 32.0471 85.2527 32.1185 85.6116C32.1898 85.9705 32.366 86.3001 32.6248 86.5588C32.8835 86.8176 33.2131 86.9937 33.572 87.0651C33.9309 87.1365 34.3028 87.0999 34.6409 86.9599C34.9789 86.8198 35.2679 86.5827 35.4711 86.2785C35.6744 85.9742 35.7829 85.6166 35.7829 85.2507C35.7829 85.0077 35.7351 84.7672 35.6421 84.5427C35.5491 84.3183 35.4128 84.1143 35.2411 83.9425C35.0693 83.7707 34.8653 83.6345 34.6409 83.5415C34.4164 83.4485 34.1759 83.4007 33.9329 83.4007ZM54.4129 83.4007C54.047 83.4007 53.6893 83.5092 53.3851 83.7125C53.0809 83.9157 52.8438 84.2047 52.7037 84.5427C52.5637 84.8808 52.5271 85.2527 52.5985 85.6116C52.6698 85.9705 52.846 86.3001 53.1048 86.5588C53.3635 86.8176 53.6931 86.9937 54.052 87.0651C54.4109 87.1365 54.7828 87.0999 55.1209 86.9599C55.4589 86.8198 55.7478 86.5827 55.9511 86.2785C56.1544 85.9742 56.2629 85.6166 56.2629 85.2507C56.2629 85.0077 56.2151 84.7672 56.1221 84.5427C56.0291 84.3183 55.8928 84.1143 55.7211 83.9425C55.5493 83.7707 55.3453 83.6345 55.1209 83.5415C54.8964 83.4485 54.6559 83.4007 54.4129 83.4007ZM23.6929 67.4007C23.3258 67.3987 22.9663 67.506 22.6603 67.709C22.3544 67.912 22.1157 68.2014 21.9748 68.5404C21.8338 68.8795 21.7969 69.2528 21.8688 69.6129C21.9407 69.9729 22.1181 70.3034 22.3784 70.5623C22.6388 70.8213 22.9703 70.9969 23.3307 71.0668C23.6912 71.1367 24.0643 71.0978 24.4025 70.955C24.7408 70.8122 25.0289 70.572 25.2302 70.2649C25.4315 69.9579 25.5369 69.5978 25.5329 69.2307C25.5329 68.7418 25.3394 68.2727 24.9946 67.9261C24.6498 67.5794 24.1818 67.3833 23.6929 67.3807V67.4007ZM44.1729 67.4007C43.807 67.4007 43.4493 67.5092 43.1451 67.7125C42.8409 67.9157 42.6038 68.2047 42.4637 68.5427C42.3237 68.8808 42.2871 69.2527 42.3585 69.6116C42.4298 69.9705 42.606 70.3001 42.8648 70.5588C43.1235 70.8176 43.4531 70.9937 43.812 71.0651C44.1709 71.1365 44.5428 71.0999 44.8809 70.9599C45.2189 70.8198 45.5079 70.5827 45.7111 70.2785C45.9144 69.9742 46.0229 69.6166 46.0229 69.2507C46.0256 69.006 45.9797 68.7633 45.8879 68.5366C45.7961 68.3098 45.6602 68.1035 45.4882 67.9296C45.3161 67.7557 45.1113 67.6176 44.8855 67.5234C44.6598 67.4292 44.4176 67.3807 44.1729 67.3807V67.4007ZM13.4529 115.731C13.087 115.731 12.7293 115.839 12.4251 116.042C12.1209 116.246 11.8838 116.535 11.7437 116.873C11.6037 117.211 11.5671 117.583 11.6385 117.942C11.7098 118.3 11.886 118.63 12.1448 118.889C12.4035 119.148 12.7331 119.324 13.092 119.395C13.4509 119.467 13.8228 119.43 14.1609 119.29C14.4989 119.15 14.7879 118.913 14.9911 118.608C15.1944 118.304 15.3029 117.947 15.3029 117.581C15.3029 117.09 15.108 116.619 14.7611 116.273C14.4141 115.926 13.9436 115.731 13.4529 115.731ZM33.9329 115.731C33.567 115.731 33.2093 115.839 32.9051 116.042C32.6009 116.246 32.3638 116.535 32.2237 116.873C32.0837 117.211 32.0471 117.583 32.1185 117.942C32.1898 118.3 32.366 118.63 32.6248 118.889C32.8835 119.148 33.2131 119.324 33.572 119.395C33.9309 119.467 34.3028 119.43 34.6409 119.29C34.9789 119.15 35.2679 118.913 35.4711 118.608C35.6744 118.304 35.7829 117.947 35.7829 117.581C35.7829 117.09 35.588 116.619 35.2411 116.273C34.8941 115.926 34.4236 115.731 33.9329 115.731ZM54.4129 115.731C54.047 115.731 53.6893 115.839 53.3851 116.042C53.0809 116.246 52.8438 116.535 52.7037 116.873C52.5637 117.211 52.5271 117.583 52.5985 117.942C52.6698 118.3 52.846 118.63 53.1048 118.889C53.3635 119.148 53.6931 119.324 54.052 119.395C54.4109 119.467 54.7828 119.43 55.1209 119.29C55.4589 119.15 55.7478 118.913 55.9511 118.608C56.1544 118.304 56.2629 117.947 56.2629 117.581C56.2629 117.09 56.068 116.619 55.7211 116.273C55.3741 115.926 54.9036 115.731 54.4129 115.731ZM23.6929 99.7307C23.3258 99.7287 22.9663 99.8361 22.6603 100.039C22.3544 100.242 22.1157 100.531 21.9748 100.87C21.8338 101.209 21.7969 101.583 21.8688 101.943C21.9407 102.303 22.1181 102.633 22.3784 102.892C22.6388 103.151 22.9703 103.327 23.3307 103.397C23.6912 103.467 24.0643 103.428 24.4025 103.285C24.7408 103.142 25.0289 102.902 25.2302 102.595C25.4315 102.288 25.5369 101.928 25.5329 101.561C25.5329 101.072 25.3394 100.603 24.9946 100.256C24.6498 99.9094 24.1818 99.7133 23.6929 99.7107V99.7307ZM44.1729 99.7307C43.807 99.7307 43.4493 99.8392 43.1451 100.042C42.8409 100.246 42.6038 100.535 42.4637 100.873C42.3237 101.211 42.2871 101.583 42.3585 101.942C42.4298 102.3 42.606 102.63 42.8648 102.889C43.1235 103.148 43.4531 103.324 43.812 103.395C44.1709 103.467 44.5428 103.43 44.8809 103.29C45.2189 103.15 45.5079 102.913 45.7111 102.608C45.9144 102.304 46.0229 101.947 46.0229 101.581C46.0256 101.336 45.9797 101.093 45.8879 100.867C45.7961 100.64 45.6602 100.433 45.4882 100.26C45.3161 100.086 45.1113 99.9476 44.8855 99.8534C44.6598 99.7592 44.4176 99.7107 44.1729 99.7107V99.7307ZM65.1029 99.7907C64.9565 99.7498 64.805 99.7296 64.6529 99.7307C64.1623 99.7307 63.6917 99.9256 63.3448 100.273C62.9978 100.619 62.8029 101.09 62.8029 101.581C62.8029 102.071 62.9978 102.542 63.3448 102.889C63.6917 103.236 64.1623 103.431 64.6529 103.431C64.9307 103.433 65.2052 103.371 65.455 103.25C65.7048 103.128 65.9232 102.951 66.0929 102.731L65.1029 99.7907ZM3.21292 132.041C2.72227 132.041 2.25171 132.236 1.90477 132.583C1.55782 132.929 1.36292 133.4 1.36292 133.891C1.35962 134.158 1.42139 134.422 1.54292 134.661C2.31292 134.551 3.54291 134.301 5.05291 133.951C5.05759 133.931 5.05759 133.91 5.05291 133.891C5.05292 133.402 4.85939 132.933 4.51461 132.586C4.16982 132.239 3.70183 132.043 3.21292 132.041Z" fill="white"/>
<path d="M40.9129 90.7507C43.8213 90.2032 46.7658 89.869 49.7229 89.7507C51.1929 89.7507 52.6529 89.7507 54.1229 89.8207C54.8529 89.8207 55.5829 89.8207 56.3129 89.8707C57.0814 89.894 57.8501 89.8269 58.6029 89.6707C58.6629 89.6707 58.6929 89.7507 58.6029 89.7707C57.9157 89.9997 57.2142 90.1834 56.5029 90.3207C55.8109 90.4257 55.1127 90.4859 54.4129 90.5007C52.9229 90.5507 51.4129 90.5007 49.9329 90.5607C46.9329 90.6207 43.9329 90.6907 40.9329 90.9707C40.8029 91.0007 40.7729 90.8207 40.9129 90.7507Z" fill="#263238"/>
<path d="M34.613 95.2207C36.8812 94.3241 39.1982 93.5562 41.553 92.9207C42.733 92.6007 43.923 92.3607 45.123 92.1407L46.843 91.8607C47.483 91.7707 48.133 91.7607 48.763 91.6607C48.7762 91.6607 48.789 91.666 48.7983 91.6754C48.8077 91.6847 48.813 91.6975 48.813 91.7107C48.813 91.724 48.8077 91.7367 48.7983 91.7461C48.789 91.7554 48.7762 91.7607 48.763 91.7607C48.173 91.8707 47.593 92.0907 47.013 92.2407L45.243 92.6807C44.063 92.9807 42.883 93.2907 41.703 93.5807C39.333 94.1607 36.983 94.7607 34.643 95.4207C34.6165 95.4247 34.5894 95.418 34.5679 95.402C34.5463 95.3861 34.532 95.3622 34.528 95.3357C34.524 95.3092 34.5307 95.2822 34.5467 95.2606C34.5626 95.2391 34.5865 95.2247 34.613 95.2207Z" fill="#263238"/>
<path d="M31.4729 48.6307C31.4729 49.8807 35.6229 58.8307 41.1529 59.6907C42.9529 59.9707 44.9129 50.2107 44.9129 50.2107L45.2229 49.5207L49.5429 39.9007L37.7529 28.5107C37.7529 28.5107 31.4629 48.0907 31.4729 48.6307Z" fill="#EB9481"/>
<path d="M49.533 39.9007L45.213 49.5207C42.6975 47.9424 40.542 45.8528 38.8864 43.3875C37.2308 40.9222 36.1122 38.1364 35.603 35.2107C36.683 31.8107 37.603 28.9907 37.713 28.5707C37.7181 28.551 37.7181 28.5304 37.713 28.5107L39.223 29.8707L49.533 39.9007Z" fill="#263238"/>
<path d="M65.853 26.4707C64.223 44.9107 52.983 46.0107 49.013 45.6607C45.403 45.3307 33.153 43.7807 32.863 25.2607C32.573 6.74068 41.673 1.68068 49.973 1.98068C58.273 2.28068 67.533 8.02067 65.853 26.4707Z" fill="#EB9481"/>
<path d="M63.333 23.2207C62.9286 23.0882 62.5314 22.9347 62.143 22.7607C61.6976 22.663 61.2989 22.416 61.013 22.0607C60.9422 21.9345 60.9156 21.7882 60.9373 21.6451C60.959 21.502 61.0279 21.3702 61.133 21.2707C61.3739 21.1044 61.6548 21.0056 61.9467 20.9845C62.2386 20.9634 62.5308 21.0208 62.793 21.1507C63.3586 21.3305 63.8388 21.7111 64.143 22.2207C64.2069 22.3419 64.2339 22.4792 64.2205 22.6155C64.2071 22.7519 64.154 22.8814 64.0678 22.9878C63.9816 23.0943 63.866 23.1731 63.7354 23.2145C63.6047 23.2559 63.4649 23.258 63.333 23.2207Z" fill="#263238"/>
<path d="M50.6929 22.8207C51.1329 22.8207 51.5429 22.8207 51.9729 22.7607C52.4264 22.798 52.8795 22.6856 53.2629 22.4407C53.3697 22.3424 53.4405 22.2112 53.464 22.0681C53.4876 21.9249 53.4626 21.778 53.3929 21.6507C53.2167 21.4195 52.9821 21.2393 52.7132 21.1286C52.4444 21.0179 52.1509 20.9807 51.8629 21.0207C51.2674 21.0136 50.6902 21.2274 50.2429 21.6207C50.1457 21.7156 50.0781 21.8367 50.0485 21.9693C50.0189 22.102 50.0286 22.2403 50.0763 22.3676C50.124 22.4948 50.2077 22.6054 50.3172 22.6858C50.4267 22.7663 50.5573 22.8132 50.6929 22.8207Z" fill="#263238"/>
<path d="M52.883 26.5107C52.883 26.4607 52.783 26.5107 52.773 26.6007C52.643 27.8607 52.283 29.2707 51.103 29.5407V29.6107C52.533 29.6007 52.963 27.7207 52.883 26.5107Z" fill="#263238"/>
<path d="M51.943 25.0507C49.943 24.6307 49.253 28.6307 51.093 29.0507C52.933 29.4707 53.613 25.4107 51.943 25.0507Z" fill="#263238"/>
<path d="M51.123 25.1207C50.733 25.2907 50.323 25.6307 49.893 25.6007C49.463 25.5707 49.103 25.0807 48.893 24.6007C48.893 24.5507 48.823 24.6007 48.813 24.6007C48.663 25.3707 48.813 26.2107 49.633 26.4607C50.453 26.7107 51.023 26.1207 51.343 25.3807C51.363 25.2907 51.283 25.0607 51.123 25.1207Z" fill="#263238"/>
<path d="M60.1129 26.8207C60.1129 26.8207 60.2029 26.9007 60.1929 26.9507C59.9229 28.1807 59.8229 29.6407 60.8729 30.2607C60.8729 30.2607 60.8729 30.3407 60.8729 30.3207C59.5329 29.8207 59.6629 27.9107 60.1129 26.8207Z" fill="#263238"/>
<path d="M61.4629 25.6907C63.4629 25.9107 62.903 29.9307 61.033 29.7407C59.163 29.5507 59.7629 25.5107 61.4629 25.6907Z" fill="#263238"/>
<path d="M62.2629 26.0807C62.5529 26.3407 62.8129 26.7707 63.1829 26.8507C63.5529 26.9307 64.0129 26.5507 64.3529 26.1707C64.3529 26.1707 64.4129 26.1707 64.4129 26.2307C64.3229 27.0007 63.9529 27.7707 63.1929 27.8107C62.4329 27.8507 62.0929 27.1107 62.0229 26.3207C62.0029 26.1707 62.1429 25.9707 62.2629 26.0807Z" fill="#263238"/>
<path d="M56.9629 33.0507C56.9629 33.0507 56.8629 34.9507 56.7029 35.8207C56.7029 35.9007 56.4629 35.9007 56.1629 35.8207C55.3876 35.816 54.6287 35.5967 53.9704 35.1872C53.312 34.7777 52.7799 34.194 52.4329 33.5007C52.4263 33.4909 52.4217 33.4798 52.4194 33.4682C52.4171 33.4566 52.4172 33.4447 52.4195 33.433C52.4218 33.4214 52.4264 33.4104 52.433 33.4005C52.4396 33.3907 52.448 33.3823 52.4579 33.3757C52.4677 33.3691 52.4788 33.3646 52.4904 33.3623C52.502 33.36 52.5139 33.36 52.5255 33.3623C52.5371 33.3647 52.5482 33.3692 52.558 33.3758C52.5679 33.3824 52.5763 33.3908 52.5829 33.4007C53.5496 34.3763 54.805 35.0145 56.1629 35.2207C56.2729 34.9907 56.2229 31.9607 56.3629 31.9807C57.0314 32.1684 57.6708 32.4477 58.2629 32.8107C58.5829 28.8607 58.2629 24.8907 58.6529 20.9607C58.6529 20.9289 58.6655 20.8984 58.688 20.8759C58.7105 20.8534 58.741 20.8407 58.7729 20.8407C58.8047 20.8407 58.8352 20.8534 58.8577 20.8759C58.8802 20.8984 58.8929 20.9289 58.8929 20.9607C59.3574 25.2028 59.3976 29.4806 59.0129 33.7307C58.9529 34.2607 57.2829 33.2607 56.9629 33.0507Z" fill="#263238"/>
<path d="M56.193 35.5007C55.5906 36.1538 54.8292 36.6396 53.983 36.9107C53.5207 37.0552 53.0253 37.0552 52.563 36.9107C51.563 36.5407 51.633 35.6107 51.893 34.8307C52.0327 34.415 52.2242 34.0185 52.463 33.6507C53.48 34.6456 54.7856 35.2931 56.193 35.5007Z" fill="#263238"/>
<path d="M53.983 36.9107C53.5207 37.0552 53.0253 37.0552 52.563 36.9107C51.563 36.5407 51.633 35.6107 51.893 34.8307C52.4225 34.8971 52.915 35.1373 53.2933 35.5137C53.6715 35.8902 53.9141 36.3815 53.983 36.9107Z" fill="#FF9CBD"/>
<path d="M33.6329 26.9607C35.6329 26.9607 41.3729 21.8207 42.2729 12.0507C42.2729 12.0507 40.8529 20.7607 40.0929 22.0507C39.3329 23.3407 43.2829 19.1407 44.0929 11.2707C46.4408 13.2407 49.0612 14.8608 51.8729 16.0807C55.5129 17.4107 57.7929 17.5507 58.0829 17.3007C58.3729 17.0507 53.0229 14.9107 51.6629 13.0807C51.6629 13.0807 61.2229 18.4407 65.7729 19.1407C66.2929 19.2207 67.5429 9.45067 60.7729 4.30067C54.0029 -0.849327 42.7129 2.23067 39.4829 4.91067C39.4829 4.91067 35.9129 5.14067 31.6729 10.0807C27.4329 15.0207 31.4429 26.9207 33.6329 26.9607Z" fill="#263238"/>
<path d="M48.4031 33.0207C47.2986 32.8073 46.2764 32.2878 45.4531 31.5214C44.6297 30.7551 44.0383 29.7727 43.7465 28.6863C43.4546 27.6 43.474 26.4535 43.8025 25.3777C44.1309 24.3019 44.7551 23.3401 45.6039 22.602C46.4528 21.8639 47.492 21.3792 48.603 21.2034C49.714 21.0275 50.8521 21.1675 51.8873 21.6074C52.9226 22.0472 53.8134 22.7693 54.458 23.6911C55.1026 24.6129 55.4751 25.6973 55.5331 26.8207C55.5776 27.6089 55.4662 28.3981 55.2051 29.1432C54.9441 29.8882 54.5386 30.5744 54.0118 31.1625C53.4851 31.7505 52.8475 32.2288 52.1356 32.57C51.4237 32.9112 50.6514 33.1085 49.8631 33.1507C49.3728 33.1707 48.8821 33.127 48.4031 33.0207ZM50.5631 22.0207C50.1388 21.935 49.7051 21.9047 49.2731 21.9307C47.9493 22.0032 46.7031 22.5777 45.7881 23.537C44.8731 24.4964 44.3583 25.7684 44.3484 27.0941C44.3385 28.4198 44.8344 29.6993 45.735 30.6722C46.6356 31.645 47.8732 32.238 49.1956 32.3302C50.5181 32.4225 51.8261 32.0072 52.853 31.1688C53.88 30.3304 54.5487 29.1321 54.723 27.8179C54.8973 26.5037 54.5641 25.1725 53.7912 24.0954C53.0183 23.0183 51.8639 22.2764 50.5631 22.0207Z" fill="#8BC2AC"/>
<path d="M62.163 34.0107C59.903 33.5707 58.313 30.8607 58.553 27.7307C58.6431 26.2318 59.199 24.7985 60.143 23.6307C60.5205 23.1083 61.0261 22.6917 61.611 22.4209C62.196 22.1502 62.8407 22.0343 63.4833 22.0845C64.1259 22.1347 64.7449 22.3493 65.2807 22.7076C65.8165 23.0659 66.2511 23.556 66.543 24.1307C67.2954 25.4279 67.6241 26.9277 67.483 28.4207C67.223 31.7207 65.013 34.2607 62.553 34.0707C62.4217 34.0605 62.2913 34.0405 62.163 34.0107ZM63.723 22.9207H63.423C62.9089 22.9037 62.3981 23.0102 61.9336 23.2312C61.4691 23.4521 61.0642 23.7811 60.753 24.1907C59.9219 25.2305 59.4329 26.502 59.353 27.8307C59.133 30.6907 60.593 33.1507 62.613 33.3107C64.633 33.4707 66.463 31.2607 66.683 28.4007C66.81 27.0752 66.5199 25.7432 65.853 24.5907C65.6367 24.1772 65.3349 23.8145 64.9677 23.5265C64.6004 23.2386 64.1762 23.0321 63.723 22.9207Z" fill="#8BC2AC"/>
<path d="M55.313 27.4707L54.843 26.8107C55.843 26.1207 57.993 25.2607 59.333 26.9407L58.703 27.4407C57.533 25.9307 55.393 27.4007 55.313 27.4707Z" fill="#8BC2AC"/>
<path d="M28.473 26.9407L27.793 26.5207C27.993 26.2007 29.793 23.4007 31.583 23.2507C33.373 23.1007 43.943 24.9507 44.393 25.0307L44.263 25.8207C41.203 25.2907 32.963 23.9407 31.653 24.0507C30.343 24.1607 28.953 26.1707 28.473 26.9407Z" fill="#8BC2AC"/>
<path d="M35.673 26.9407C35.673 26.9407 32.673 20.5407 29.863 21.5107C27.053 22.4807 28.573 31.2507 31.403 32.9107C31.751 33.1498 32.144 33.3158 32.5582 33.3986C32.9723 33.4814 33.3989 33.4792 33.8121 33.3923C34.2254 33.3053 34.6167 33.1354 34.9623 32.8927C35.308 32.6501 35.6008 32.3398 35.823 31.9807L35.673 26.9407Z" fill="#EB9481"/>
<path d="M30.3728 24.0107V24.0907C32.3728 25.3307 33.1128 27.5007 33.5328 29.6807C33.447 29.4464 33.3116 29.2335 33.1358 29.0565C32.96 28.8794 32.748 28.7425 32.5143 28.6552C32.2806 28.5678 32.0308 28.532 31.782 28.5502C31.5332 28.5684 31.2913 28.6402 31.0728 28.7607C31.0128 28.7607 31.0728 28.8907 31.0728 28.8907C31.4689 28.8276 31.8747 28.8901 32.2334 29.0695C32.5921 29.2488 32.8856 29.536 33.0728 29.8907C33.3723 30.4837 33.6069 31.1073 33.7728 31.7507C33.8328 31.9607 34.1928 31.9207 34.1628 31.6907C34.1628 31.6907 34.1628 31.6907 34.1628 31.6307C34.6628 28.9607 33.2328 24.8207 30.3728 24.0107Z" fill="#263238"/>
<path d="M17.1329 62.2407C2.97294 90.1707 1.29294 113.821 5.47294 118.061C16.7229 129.531 53.6629 124.421 63.7029 124.231C67.7629 124.151 59.5129 90.7807 55.2129 91.3807C45.0729 92.7807 30.5129 95.9707 30.0229 95.7707C29.0229 95.3607 30.1729 87.4807 31.6829 63.9607C32.9029 44.9307 22.9229 50.8207 17.1329 62.2407Z" fill="#EB9481"/>
<path d="M68.7629 87.2807C78.8429 85.8707 81.6429 87.0607 89.5129 81.3607C94.6829 77.6207 99.2929 79.3107 96.3429 85.2607C91.5329 94.9807 78.9029 99.5207 74.0729 99.8207L68.7629 87.2807Z" fill="#EB9481"/>
<path d="M42.0029 96.9807C42.0029 96.9807 53.3229 90.6907 63.9129 88.1307C71.2329 86.3607 86.6529 85.2607 103.243 100.431C107.633 104.431 108.513 112.501 100.673 108.041C94.9529 104.781 92.3929 101.811 88.6729 100.761C88.6729 100.761 90.7329 111.441 86.7529 115.011C83.2701 118.131 79.5709 121.002 75.6829 123.601C75.0485 122.993 74.4508 122.349 73.8929 121.671C73.8929 121.671 69.8929 124.671 62.2629 123.931L42.0029 96.9807Z" fill="#EB9481"/>
<path d="M71.1729 87.5607C74.6729 89.3907 82.0229 93.3807 86.9029 98.7407C92.3229 104.691 101.163 117.621 96.7329 121.581C93.4729 124.481 89.6729 119.841 89.6729 119.841C89.6729 119.841 92.1929 125.951 88.6729 127.931C85.4729 129.731 82.743 125.931 82.743 125.931C82.743 125.931 83.6429 129.931 80.2229 131.041C76.1129 132.421 74.9129 123.871 69.5429 121.661C68.3529 121.211 71.1729 87.5607 71.1729 87.5607Z" fill="#EB9481"/>
<path d="M79.663 103.421C82.663 105.671 88.193 112.551 89.723 119.681C89.723 119.841 89.653 119.951 89.593 119.811C86.9349 113.979 83.5768 108.492 79.593 103.471C79.593 103.471 79.623 103.391 79.663 103.421Z" fill="#263238"/>
<path d="M73.8129 109.061C76.2129 111.281 81.5829 118.621 82.8829 125.901C82.8829 126.061 82.8029 126.171 82.7429 126.021C80.3904 120.063 77.3712 114.39 73.7429 109.111C73.7429 109.111 73.7829 109.041 73.8129 109.061Z" fill="#263238"/>
<path d="M53.303 91.6507C57.8188 89.6786 62.5369 88.2066 67.373 87.2607C69.7915 86.7726 72.2353 86.4187 74.693 86.2007C75.933 86.1007 77.173 86.0707 78.353 85.9107C79.5479 85.7303 80.7254 85.4493 81.873 85.0707C84.1777 84.3127 86.3528 83.2066 88.323 81.7907C89.3089 81.0036 90.4079 80.3698 91.583 79.9107C92.7791 79.3958 94.09 79.2061 95.383 79.3607C96.0876 79.4468 96.7303 79.8058 97.173 80.3607C97.5657 80.9499 97.7456 81.6554 97.683 82.3607C97.5868 83.6429 97.2295 84.8918 96.633 86.0307C95.4437 88.2532 93.8058 90.2044 91.823 91.7607V91.1707C94.9112 93.1778 97.8857 95.3544 100.733 97.6907C102.172 98.863 103.51 100.154 104.733 101.551C105.333 102.274 105.849 103.062 106.273 103.901C106.73 104.752 107.006 105.688 107.083 106.651C107.106 107.161 107.014 107.671 106.813 108.141C106.589 108.623 106.204 109.012 105.723 109.241C104.789 109.596 103.757 109.596 102.823 109.241C101.095 108.553 99.4512 107.67 97.923 106.611C96.383 105.611 94.923 104.541 93.363 103.521C92.613 103.011 91.843 102.521 91.063 102.041C90.3051 101.557 89.484 101.18 88.623 100.921L88.813 100.611C90.8006 103.071 92.6087 105.671 94.223 108.391C95.0291 109.75 95.7537 111.156 96.393 112.601C97.0345 114.045 97.5205 115.554 97.843 117.101C97.4926 115.563 96.9762 114.067 96.303 112.641C95.6421 111.211 94.8906 109.825 94.053 108.491C92.3942 105.815 90.5462 103.262 88.523 100.851L88.143 100.401L88.713 100.551C89.6108 100.813 90.4687 101.197 91.263 101.691C92.063 102.161 92.843 102.691 93.613 103.151C95.143 104.151 96.613 105.201 98.193 106.151C99.6914 107.171 101.302 108.017 102.993 108.671C103.789 108.971 104.667 108.971 105.463 108.671C105.81 108.475 106.09 108.18 106.269 107.824C106.447 107.467 106.514 107.066 106.463 106.671C106.205 104.913 105.433 103.27 104.243 101.951C103.04 100.593 101.725 99.3388 100.313 98.2007C97.4826 95.8883 94.521 93.7414 91.443 91.7707L91.033 91.5007L91.423 91.1807C93.3078 89.6819 94.8664 87.8137 96.003 85.6907C96.5521 84.6466 96.8918 83.5052 97.003 82.3307C97.0138 81.7898 96.8489 81.2599 96.533 80.8207C96.2104 80.4032 95.736 80.13 95.213 80.0607C94.0515 79.9394 92.8782 80.1149 91.803 80.5707C90.683 81.0005 89.6344 81.5972 88.693 82.3407C86.6642 83.7992 84.4207 84.9328 82.043 85.7007C80.8554 86.0872 79.6379 86.3748 78.403 86.5607C77.143 86.7207 75.923 86.7407 74.703 86.8307C72.273 87.0207 69.833 87.3007 67.423 87.7307C62.6008 88.5785 57.8721 89.8913 53.303 91.6507Z" fill="#263238"/>
<path d="M4.323 86.3807L31.533 81.7007C31.533 81.7007 32.533 67.8707 31.973 60.1407C31.233 49.9207 27.273 47.8207 19.673 57.8207C14.593 64.5007 4.323 86.3807 4.323 86.3807Z" fill="#1FAF95"/>
<path d="M15.143 84.5207L11.613 85.1207C11.6398 84.7074 11.8051 84.3152 12.0824 84.0076C12.3596 83.6999 12.7326 83.4948 13.1409 83.4254C13.5492 83.356 13.9689 83.4264 14.3323 83.6251C14.6956 83.8239 14.9813 84.1395 15.143 84.5207ZM23.693 67.3807C23.3267 67.3787 22.9681 67.4855 22.6625 67.6876C22.357 67.8897 22.1183 68.1779 21.9767 68.5158C21.8352 68.8536 21.7971 69.2259 21.8674 69.5854C21.9376 69.945 22.113 70.2755 22.3713 70.5353C22.6297 70.795 22.9593 70.9722 23.3184 71.0444C23.6776 71.1166 24.05 71.0805 24.3887 70.9408C24.7273 70.8011 25.0168 70.564 25.2205 70.2595C25.4243 69.9551 25.533 69.597 25.533 69.2307C25.533 68.7418 25.3395 68.2727 24.9947 67.9261C24.6499 67.5794 24.182 67.3833 23.693 67.3807Z" fill="white"/>
<path d="M6.6429 83.3307C10.5529 82.3807 14.4629 81.4807 18.4229 80.7507C20.4229 80.3907 22.3996 80.0573 24.3529 79.7507C26.3529 79.4507 28.3529 79.3507 30.3529 79.0207C30.4529 79.0207 30.4829 79.1807 30.3529 79.1907C28.3529 79.4207 26.3529 79.9107 24.4129 80.2507C22.4729 80.5907 20.4629 80.9207 18.4829 81.2507C14.5429 81.9607 10.5929 82.6607 6.6629 83.4607C6.5329 83.5207 6.5329 83.3607 6.6429 83.3307Z" fill="#263238"/>
<path d="M28.1928 82.2807C29.2709 82.0052 30.3623 81.7849 31.4628 81.6207C31.5328 79.9907 31.5828 78.3607 31.6828 76.7307C31.6828 75.9207 31.7828 75.1007 31.8528 74.2907C31.9228 73.4807 31.9828 72.3707 32.0528 71.5807C32.0481 71.5672 32.0467 71.5526 32.0487 71.5384C32.0507 71.5242 32.0561 71.5107 32.0645 71.499C32.0728 71.4873 32.0838 71.4777 32.0965 71.4712C32.1093 71.4646 32.1234 71.4611 32.1378 71.4611C32.1522 71.4611 32.1663 71.4646 32.1791 71.4712C32.1918 71.4777 32.2028 71.4873 32.2112 71.499C32.2195 71.5107 32.2249 71.5242 32.2269 71.5384C32.2289 71.5526 32.2275 71.5672 32.2228 71.5807C32.2228 72.5807 32.2228 73.4007 32.2228 74.3007C32.2228 75.2007 32.2228 75.9007 32.1728 76.7007C32.1128 78.4007 32.1128 80.2107 31.9528 81.9007C30.7181 82.143 29.4687 82.3034 28.2128 82.3807C28.2128 82.3807 28.1428 82.2907 28.1928 82.2807Z" fill="#263238"/>
<path d="M33.0529 73.0507C32.9257 74.0322 32.635 74.9853 32.1929 75.8707C32.2511 75.3788 32.3549 74.8934 32.5029 74.4207C32.648 73.9496 32.8319 73.4914 33.0529 73.0507Z" fill="#263238"/>
<path d="M136.363 129.381H64.6228V132.601H136.363V129.381Z" fill="#C7C7C7"/>
<path d="M95.503 129.381L93.053 132.591H151.893V129.381H95.503Z" fill="#A6A6A6"/>
<path d="M98.603 132.591H168.513L182.713 85.1107H112.793L98.603 132.591Z" fill="#A6A6A6"/>
<path d="M101.023 132.591H170.933L185.123 85.1107H115.213L101.023 132.591Z" fill="#C7C7C7"/>
<path d="M140.163 108.821C140.03 109.335 140.019 109.873 140.131 110.391C140.243 110.91 140.475 111.396 140.808 111.809C141.142 112.222 141.567 112.551 142.051 112.77C142.534 112.99 143.062 113.092 143.593 113.071C144.791 113.025 145.94 112.583 146.859 111.814C147.779 111.045 148.417 109.992 148.673 108.821C148.806 108.306 148.816 107.768 148.704 107.249C148.592 106.729 148.36 106.244 148.027 105.83C147.694 105.416 147.269 105.086 146.785 104.865C146.302 104.645 145.774 104.541 145.243 104.561C144.044 104.608 142.895 105.052 141.976 105.823C141.056 106.594 140.419 107.649 140.163 108.821Z" fill="white"/>
</svg>
