<svg width="67" height="67" viewBox="0 0 67 67" fill="none" xmlns="http://www.w3.org/2000/svg">
<path d="M33.12 0C24.288 0 18.768 7.35949 16.56 22.0785C19.872 14.719 23.736 11.9606 28.152 13.7988C30.6719 14.8478 32.4728 17.8961 34.4669 21.2687C37.7126 26.7601 41.4704 33.1188 49.68 33.1188C58.512 33.1188 64.032 25.7594 66.24 11.0381C62.928 18.3976 59.064 21.1582 54.648 19.3201C52.1295 18.271 50.3286 15.2228 48.3345 11.8502C45.0874 6.35644 41.3282 0 33.12 0ZM16.56 33.1188C7.728 33.1188 2.208 40.4783 0 55.1996C3.312 47.8401 7.176 45.0795 11.592 46.9199C14.1105 47.9713 15.9114 51.0172 17.9055 54.3875C21.1526 59.8812 24.9118 66.24 33.12 66.24C41.952 66.24 47.472 58.8805 49.68 44.1592C46.368 51.5187 42.504 54.2794 38.088 52.4389C35.5681 51.3899 33.7672 48.3416 31.7731 44.9713C28.5274 39.4776 24.7696 33.1188 16.56 33.1188Z" fill="url(#paint0_linear_503_7)"/>
<defs>
<linearGradient id="paint0_linear_503_7" x1="33.1188" y1="-1.22455" x2="33.1188" y2="59.4294" gradientUnits="userSpaceOnUse">
<stop stop-color="#37926C"/>
<stop offset="0.0001" stop-color="#37926C"/>
<stop offset="1" stop-color="#91FFD2"/>
</linearGradient>
</defs>
</svg>
