<svg width="68" height="67" viewBox="0 0 68 67" fill="none" xmlns="http://www.w3.org/2000/svg">
<path d="M59.8175 66.5973H7.97672C3.94466 66.5973 0.776611 63.4293 0.776611 59.3972V7.55643C0.776611 3.52437 3.94466 0.356323 7.97672 0.356323H59.8175C63.8496 0.356323 67.0176 3.52437 67.0176 7.55643V59.3972C67.0176 63.4293 63.8496 66.5973 59.8175 66.5973ZM7.97672 3.23637C5.52868 3.23637 3.65665 5.10839 3.65665 7.55643V59.3972C3.65665 61.8452 5.52868 63.7173 7.97672 63.7173H59.8175C62.2655 63.7173 64.1376 61.8452 64.1376 59.3972V7.55643C64.1376 5.10839 62.2655 3.23637 59.8175 3.23637H7.97672Z" fill="url(#paint0_linear_57_1790)"/>
<path d="M43.9771 24.8367H49.7372V19.0766C49.7372 18.2126 50.3132 17.6366 51.1772 17.6366H54.0573C54.9213 17.6366 55.4973 18.2126 55.4973 19.0766V37.0769V44.997C55.4973 48.1651 52.9053 50.7571 49.7372 50.7571H43.9771C40.8091 50.7571 38.217 48.1651 38.217 44.997V30.5968C38.217 27.4287 40.8091 24.8367 43.9771 24.8367ZM43.9771 43.557C43.9771 44.277 44.5531 44.997 45.2731 44.997H48.4412C49.1612 44.997 49.7372 44.421 49.7372 43.557V32.0368C49.7372 31.1728 49.1612 30.5968 48.2972 30.5968H45.4171C44.5531 30.5968 43.9771 31.1728 43.9771 32.0368V43.557Z" fill="url(#paint1_linear_57_1790)"/>
<path d="M25.977 34.1968L33.7531 19.7966C34.3291 18.7886 33.6091 17.6366 32.4571 17.6366H29.145C28.569 17.6366 28.137 17.9246 27.849 18.3566L22.6649 28.0048L17.4808 18.3566C17.1928 17.9246 16.7608 17.6366 16.1848 17.6366H12.8728C11.7208 17.6366 11.1447 18.7886 11.5768 19.7966L19.3529 34.1968L11.5768 48.5971C11.0007 49.6051 11.7208 50.7571 12.8728 50.7571H16.1848C16.7608 50.7571 17.1928 50.4691 17.4808 50.0371L22.6649 40.3889L27.849 50.0371C28.137 50.4691 28.569 50.7571 29.145 50.7571H32.4571C33.6091 50.7571 34.1851 49.6051 33.7531 48.5971L25.977 34.1968Z" fill="url(#paint2_linear_57_1790)"/>
<defs>
<linearGradient id="paint0_linear_57_1790" x1="33.8976" y1="0.0328593" x2="33.8976" y2="68.1815" gradientUnits="userSpaceOnUse">
<stop stop-color="#E0E0E0"/>
<stop offset="1" stop-color="#37745B"/>
</linearGradient>
<linearGradient id="paint1_linear_57_1790" x1="46.8569" y1="17.0243" x2="46.8569" y2="47.3517" gradientUnits="userSpaceOnUse">
<stop stop-color="#37926C"/>
<stop offset="0.0001" stop-color="#37926C"/>
<stop offset="1" stop-color="#91FFD2"/>
</linearGradient>
<linearGradient id="paint2_linear_57_1790" x1="22.6645" y1="17.0243" x2="22.6645" y2="47.3517" gradientUnits="userSpaceOnUse">
<stop stop-color="#37926C"/>
<stop offset="0.0001" stop-color="#37926C"/>
<stop offset="1" stop-color="#91FFD2"/>
</linearGradient>
</defs>
</svg>
